<svg width="18" height="18" viewBox="0 0 18 18" fill="none" xmlns="http://www.w3.org/2000/svg">
<path d="M17.4545 5.82955V4.90909C17.4545 3.85473 16.5998 3 15.5455 3H1.90909C0.854727 3 0 3.85473 0 4.90909V5.82955C0 5.92367 0.0763296 6 0.170455 6H17.2841C17.3782 6 17.4545 5.92367 17.4545 5.82955Z" fill="#8E61C3"/>
<path d="M0 7.2614V13.0909C0 14.1453 0.854727 15 1.90909 15H15.5455C16.5998 15 17.4545 14.1453 17.4545 13.0909V7.2614C17.4545 7.16727 17.3782 7.09094 17.2841 7.09094H0.170455C0.0763296 7.09094 0 7.16727 0 7.2614ZM4.36364 11.7273C4.36364 12.0285 4.11941 12.2728 3.81818 12.2728H3.27273C2.9715 12.2728 2.72727 12.0285 2.72727 11.7273V11.1819C2.72727 10.8806 2.9715 10.6364 3.27273 10.6364H3.81818C4.11941 10.6364 4.36364 10.8806 4.36364 11.1819V11.7273Z" fill="#8E61C3"/>
</svg>
