<svg width="20" height="20" viewBox="0 0 20 20" fill="none" xmlns="http://www.w3.org/2000/svg">
<path d="M11.9307 0.679688C12.541 0.74038 13.1152 1.01075 13.5527 1.44824C14.0525 1.94829 14.334 2.62698 14.334 3.33398V4H17.5L17.6025 4.00488C18.1067 4.05621 18.5 4.48232 18.5 5C18.5 5.51768 18.1067 5.94379 17.6025 5.99512L17.5 6H16.834V16.667C16.8339 17.3741 16.5527 18.0527 16.0527 18.5527C15.5527 19.0527 14.8741 19.3339 14.167 19.334H5.83398C5.12697 19.334 4.44829 19.0525 3.94824 18.5527C3.51077 18.1153 3.24039 17.541 3.17969 16.9307L3.16699 16.667V6H2.5C1.94772 6 1.5 5.55228 1.5 5C1.5 4.44772 1.94772 4 2.5 4H5.66699V3.33398C5.66699 2.62675 5.94816 1.94834 6.44824 1.44824C6.94834 0.948145 7.62674 0.666992 8.33398 0.666992H11.667L11.9307 0.679688ZM5.16699 16.667L5.17969 16.7979C5.20537 16.9258 5.26867 17.045 5.3623 17.1387C5.48728 17.2634 5.65741 17.334 5.83398 17.334H14.167C14.3437 17.3339 14.5137 17.2636 14.6387 17.1387C14.7636 17.0137 14.8339 16.8437 14.834 16.667V6H5.16699V16.667ZM8.33301 8.16699C8.88529 8.16699 9.33301 8.61471 9.33301 9.16699V14.167C9.33281 14.7191 8.88517 15.167 8.33301 15.167C7.78099 15.1668 7.33321 14.719 7.33301 14.167V9.16699C7.33301 8.61481 7.78086 8.16716 8.33301 8.16699ZM11.667 8.16699C12.2191 8.16716 12.667 8.61481 12.667 9.16699V14.167C12.6668 14.719 12.219 15.1668 11.667 15.167C11.1148 15.167 10.6672 14.7191 10.667 14.167V9.16699C10.667 8.61471 11.1147 8.16699 11.667 8.16699ZM8.33398 2.66699C8.15717 2.66699 7.98733 2.73728 7.8623 2.8623C7.7373 2.98733 7.66699 3.15719 7.66699 3.33398V4H12.334V3.33398C12.334 3.15741 12.2634 2.98728 12.1387 2.8623C12.045 2.76866 11.9258 2.70537 11.7979 2.67969L11.667 2.66699H8.33398Z" fill="white"/>
</svg>
