<svg width="33" height="167" viewBox="0 0 33 167" fill="none" xmlns="http://www.w3.org/2000/svg">
<path d="M0.475332 26.2225C1.34677 21.1523 4.51565 17.1912 9.26897 16.9535C19.4886 16.399 25.0342 10.5365 29.3121 2.29744C29.7875 1.426 30.0251 0.316888 31.2135 0C32.481 1.426 32.4018 3.16888 32.4018 4.83254C32.4018 16.5574 32.3226 28.203 32.2434 39.9279C32.2434 48.167 32.5602 56.4853 32.4018 64.8036C32.1641 78.5882 32.2434 92.3729 32.2434 106.157C32.2434 122.953 32.2434 139.827 32.4018 156.622C32.4018 160.108 33.5109 163.752 31.1342 167C28.6784 164.465 27.0939 161.296 25.1926 158.286C22.5783 154.087 19.1717 151.552 14.1015 151.076C7.60531 150.443 1.98055 148.383 0.39611 140.936C0 138.322 0 135.707 0 133.093C0 100.216 0 67.3387 0 34.3824C0 31.6888 0 28.916 0.475332 26.2225Z" fill="#8E61C3"/>
</svg>
