<svg width="16" height="16" viewBox="0 0 16 16" fill="none" xmlns="http://www.w3.org/2000/svg">
<path d="M4.34157 1.12683C4.05236 1.12683 3.81792 1.34858 3.81792 1.62214V2.61272H4.86519V1.62214C4.86519 1.34858 4.63075 1.12683 4.34157 1.12683Z" fill="white"/>
<path d="M11.6725 1.12683C11.3833 1.12683 11.1489 1.34858 11.1489 1.62214V2.61272H12.1962V1.62214C12.1962 1.34858 11.9617 1.12683 11.6725 1.12683Z" fill="white"/>
<path d="M13.7671 2.61267H12.1962V4.59387C12.1962 4.86742 11.9617 5.08917 11.6725 5.08917C11.3833 5.08917 11.1489 4.86742 11.1489 4.59387V2.61267H4.86518V4.59387C4.86518 4.86742 4.63074 5.08917 4.34153 5.08917C4.05232 5.08917 3.81788 4.86742 3.81788 4.59387V2.61267H2.24698C1.37938 2.61267 0.676056 3.27793 0.676056 4.09856V13.5092C0.676056 14.3298 1.37938 14.9951 2.24698 14.9951H13.7671C14.6347 14.9951 15.338 14.3298 15.338 13.5092V4.09856C15.338 3.27793 14.6347 2.61267 13.7671 2.61267ZM14.2907 13.5092C14.2907 13.7828 14.0563 14.0045 13.7671 14.0045H2.24698C1.95777 14.0045 1.72333 13.7828 1.72333 13.5092V7.07034H14.2907V13.5092Z" fill="white"/>
<path d="M4.86518 8.06091H3.8179C3.52869 8.06091 3.29425 8.28267 3.29425 8.55622C3.29425 8.82978 3.52869 9.05153 3.8179 9.05153H4.86518C5.15439 9.05153 5.38883 8.82978 5.38883 8.55622C5.38883 8.28267 5.15439 8.06091 4.86518 8.06091Z" fill="white"/>
<path d="M8.53069 8.06091H7.48342C7.19421 8.06091 6.95976 8.28267 6.95976 8.55622C6.95976 8.82978 7.19421 9.05153 7.48342 9.05153H8.53069C8.8199 9.05153 9.05435 8.82978 9.05435 8.55622C9.05435 8.28267 8.8199 8.06091 8.53069 8.06091Z" fill="white"/>
<path d="M12.1962 8.06091H11.1489C10.8597 8.06091 10.6253 8.28267 10.6253 8.55622C10.6253 8.82978 10.8597 9.05153 11.1489 9.05153H12.1962C12.4854 9.05153 12.7199 8.82978 12.7199 8.55622C12.7199 8.28267 12.4854 8.06091 12.1962 8.06091Z" fill="white"/>
<path d="M4.86518 10.0421H3.8179C3.52869 10.0421 3.29425 10.2639 3.29425 10.5374C3.29425 10.811 3.52869 11.0327 3.8179 11.0327H4.86518C5.15439 11.0327 5.38883 10.811 5.38883 10.5374C5.38883 10.2639 5.15439 10.0421 4.86518 10.0421Z" fill="white"/>
<path d="M8.53069 10.0421H7.48342C7.19421 10.0421 6.95976 10.2639 6.95976 10.5374C6.95976 10.811 7.19421 11.0327 7.48342 11.0327H8.53069C8.8199 11.0327 9.05435 10.811 9.05435 10.5374C9.05435 10.2639 8.8199 10.0421 8.53069 10.0421Z" fill="white"/>
<path d="M12.1962 10.0421H11.1489C10.8597 10.0421 10.6253 10.2639 10.6253 10.5374C10.6253 10.811 10.8597 11.0327 11.1489 11.0327H12.1962C12.4854 11.0327 12.7199 10.811 12.7199 10.5374C12.7198 10.2639 12.4854 10.0421 12.1962 10.0421Z" fill="white"/>
<path d="M4.86518 12.0233H3.8179C3.52869 12.0233 3.29425 12.2451 3.29425 12.5186C3.29425 12.7922 3.52869 13.0139 3.8179 13.0139H4.86518C5.15439 13.0139 5.38883 12.7921 5.38883 12.5186C5.38883 12.245 5.15439 12.0233 4.86518 12.0233Z" fill="white"/>
<path d="M8.53069 12.0233H7.48342C7.19421 12.0233 6.95976 12.2451 6.95976 12.5186C6.95976 12.7922 7.19421 13.0139 7.48342 13.0139H8.53069C8.8199 13.0139 9.05435 12.7922 9.05435 12.5186C9.05435 12.2451 8.8199 12.0233 8.53069 12.0233Z" fill="white"/>
<path d="M12.1962 12.0233H11.1489C10.8597 12.0233 10.6253 12.2451 10.6253 12.5186C10.6253 12.7922 10.8597 13.0139 11.1489 13.0139H12.1962C12.4854 13.0139 12.7199 12.7922 12.7199 12.5186C12.7199 12.2451 12.4854 12.0233 12.1962 12.0233Z" fill="white"/>
</svg>
