<svg width="12" height="12" viewBox="0 0 12 12" fill="none" xmlns="http://www.w3.org/2000/svg">
<g clip-path="url(#clip0_343_2394)">
<path d="M4.94522 3.63281C2.23132 3.63281 2.46819e-05 5.49907 2.46819e-05 7.79311C2.46819e-05 8.7101 0.355712 9.64205 1.008 10.3644L0.0868841 11.417C-0.00374876 11.5207 -0.0257331 11.6679 0.0316184 11.7936C0.0886184 11.9192 0.213587 11.9999 0.351587 11.9999H5.29678C7.30057 11.9999 9.89042 10.2745 9.89042 7.79311C9.89042 5.49907 7.65912 3.63281 4.94522 3.63281ZM2.81245 8.4375C2.42484 8.4375 2.10935 8.12198 2.10935 7.7344C2.10935 7.34679 2.42487 7.0313 2.81245 7.0313C3.20004 7.0313 3.51556 7.34681 3.51556 7.7344C3.51558 8.12198 3.20006 8.4375 2.81245 8.4375ZM4.94522 8.4375C4.55761 8.4375 4.24212 8.12198 4.24212 7.7344C4.24212 7.34679 4.55763 7.0313 4.94522 7.0313C5.33281 7.0313 5.64832 7.34681 5.64832 7.7344C5.64832 8.12198 5.33283 8.4375 4.94522 8.4375ZM7.07799 8.4375C6.69038 8.4375 6.37488 8.12198 6.37488 7.7344C6.37488 7.34679 6.6904 7.0313 7.07799 7.0313C7.46557 7.0313 7.78109 7.34681 7.78109 7.7344C7.78109 8.12198 7.46559 8.4375 7.07799 8.4375Z" fill="#7B59A3"/>
<path d="M11.915 7.15388L11.0872 6.18814C11.6781 5.52144 11.9998 4.70844 11.9998 3.86734C11.9998 1.73502 9.94948 0.000244141 7.42955 0.000244141C5.15084 0.000244141 3.21488 1.4203 2.87305 3.2686C3.50886 3.05256 4.2219 2.92974 4.94525 2.92974C8.02384 2.92974 10.5532 5.08002 10.5901 7.73443H11.6482C11.9485 7.73445 12.1098 7.38083 11.915 7.15388Z" fill="#7B59A3"/>
</g>
<defs>
<clipPath id="clip0_343_2394">
<rect width="12" height="12" fill="white"/>
</clipPath>
</defs>
</svg>
