<svg width="21" height="22" viewBox="0 0 21 22" fill="none" xmlns="http://www.w3.org/2000/svg">
<g clip-path="url(#clip0_318_198)">
<path d="M20.969 3.14592C20.969 1.82048 19.8917 0.743164 18.5663 0.743164H2.40276C1.07731 0.743164 0 1.82048 0 3.14592V19.3094C0 20.6349 1.07731 21.7122 2.40276 21.7122H18.5663C19.8917 21.7122 20.969 20.6349 20.969 19.3094V3.14592Z" fill="#4CAF50"/>
<path d="M15.7984 7.77045C16.14 8.11201 16.14 8.6641 15.7984 9.00582L10.1193 14.6848C9.94887 14.8552 9.72522 14.941 9.50157 14.941C9.27791 14.941 9.05426 14.8552 8.88388 14.6848L6.04438 11.8453C5.70266 11.5038 5.70266 10.9515 6.04438 10.61C6.38594 10.2682 6.93803 10.2682 7.27975 10.61L9.50157 12.8318L14.563 7.77045C14.9046 7.42873 15.4567 7.42873 15.7984 7.77045Z" fill="#FAFAFA"/>
</g>
<defs>
<clipPath id="clip0_318_198">
<rect width="20.969" height="20.969" fill="white" transform="translate(0 0.743164)"/>
</clipPath>
</defs>
</svg>
