<svg width="24" height="24" viewBox="0 0 24 24" fill="none" xmlns="http://www.w3.org/2000/svg">
<path d="M8.20312 8.20312C8.625 7.78125 9.32812 7.78125 9.75 8.20312L11.9531 10.4531L14.2031 8.20312C14.625 7.78125 15.3281 7.78125 15.75 8.20312C16.2188 8.67188 16.2188 9.375 15.75 9.79688L13.5469 12L15.75 14.2031C16.2188 14.6719 16.2188 15.375 15.75 15.7969C15.3281 16.2656 14.625 16.2656 14.2031 15.7969L11.9531 13.5938L9.75 15.7969C9.32812 16.2656 8.625 16.2656 8.20312 15.7969C7.73438 15.375 7.73438 14.6719 8.20312 14.2031L10.4062 12L8.20312 9.79688C7.73438 9.375 7.73438 8.67188 8.20312 8.20312ZM24 12C24 18.6562 18.6094 24 12 24C5.34375 24 0 18.6562 0 12C0 5.39062 5.34375 0 12 0C18.6094 0 24 5.39062 24 12ZM12 2.25C6.60938 2.25 2.25 6.65625 2.25 12C2.25 17.3906 6.60938 21.75 12 21.75C17.3438 21.75 21.75 17.3906 21.75 12C21.75 6.65625 17.3438 2.25 12 2.25Z" fill="#B6B8B9"/>
</svg>
