<svg width="20" height="20" viewBox="0 0 20 20" fill="none" xmlns="http://www.w3.org/2000/svg">
<path d="M18.1334 10.1834L16.95 8.82503C17.2667 8.40836 17.45 8.10836 17.475 8.05836C17.7084 7.6667 17.575 7.15003 17.1834 6.9167C16.7917 6.68336 16.275 6.80836 16.0417 7.20836C16.0167 7.25003 13.6334 11.1667 10 11.1667C6.3667 11.1667 4.15837 7.4167 4.00836 7.15836C3.8917 6.90003 3.65004 6.70836 3.34171 6.6667C2.87504 6.6167 2.47503 6.9417 2.4167 7.40003C2.37503 7.73336 2.71669 8.2917 3.09169 8.80003L1.88337 10.1834C1.58337 10.5334 1.61669 11.0584 1.96669 11.3584C2.12502 11.5 2.31669 11.5667 2.51669 11.5667C2.75002 11.5667 2.98336 11.4667 3.14169 11.2834L4.1917 10.0834C4.62503 10.525 5.12503 10.975 5.70003 11.3834L4.66671 13.275C4.45004 13.675 4.5917 14.1834 5.00003 14.4084C5.12503 14.475 5.26671 14.5084 5.40004 14.5084C5.69171 14.5084 5.98336 14.35 6.13336 14.075L7.15002 12.2167C7.76669 12.4917 8.45004 12.6834 9.18337 12.775V14.4834C9.18337 14.9417 9.55837 15.3167 10.0167 15.3167C10.475 15.3167 10.85 14.9417 10.85 14.4834V12.7834C11.5834 12.6917 12.2584 12.4834 12.875 12.2084L13.9 14.0834C14.05 14.3584 14.3334 14.5167 14.6334 14.5167C14.7667 14.5167 14.9084 14.4834 15.0334 14.4167C15.4334 14.2 15.5834 13.6917 15.3667 13.2834L14.3334 11.3917C14.925 10.9834 15.4334 10.5334 15.8667 10.0917L16.8917 11.2667C17.0584 11.4584 17.2834 11.55 17.5167 11.55C17.7084 11.55 17.9084 11.4834 18.0667 11.3417C18.4167 11.0417 18.45 10.5167 18.15 10.1667L18.1334 10.1834Z" fill="white"/>
</svg>
