<svg width="19" height="19" viewBox="0 0 19 19" fill="none" xmlns="http://www.w3.org/2000/svg">
<path d="M8.73703 13.9947L9.14375 12.5756C9.18812 12.418 9.28567 12.2806 9.41984 12.1867C15.7908 5.8189 15.4375 6.12551 15.7344 5.96719V2.375C15.7337 2.139 15.6396 1.91287 15.4728 1.74599C15.3059 1.57912 15.0797 1.48506 14.8438 1.48438H4.15625C3.92025 1.48506 3.69412 1.57912 3.52724 1.74599C3.36037 1.91287 3.26631 2.139 3.26562 2.375V16.625C3.26632 16.861 3.36037 17.0871 3.52725 17.254C3.69412 17.4209 3.92025 17.5149 4.15625 17.5156H14.8438C15.0797 17.5149 15.3059 17.4209 15.4728 17.254C15.6396 17.0871 15.7337 16.861 15.7344 16.625V12.3233L15.6305 12.4272C15.4607 12.5887 15.2354 12.6788 15.0011 12.6788C14.7668 12.6788 14.5415 12.5887 14.3717 12.4272C14.2993 12.3548 14.2401 12.2704 14.1966 12.1778L11.8037 14.5706C11.7064 14.7085 11.5633 14.8073 11.4 14.8497L9.99578 15.2534L9.83844 15.4137C9.75579 15.4968 9.65759 15.5627 9.54945 15.6078C9.44131 15.6529 9.32535 15.6763 9.20819 15.6765C9.09103 15.6768 8.97496 15.654 8.86661 15.6094C8.75827 15.5649 8.65976 15.4994 8.57672 15.4167C8.40901 15.2498 8.31448 15.0231 8.31392 14.7865C8.31365 14.6693 8.33645 14.5532 8.38103 14.4449C8.42561 14.3365 8.4911 14.238 8.57375 14.155L8.73703 13.9947ZM5.26062 3.85938H12.9794C13.0576 3.86016 13.1323 3.89178 13.1874 3.94737C13.2424 4.00296 13.2733 4.07802 13.2733 4.15625C13.2733 4.23448 13.2424 4.30954 13.1874 4.36513C13.1323 4.42072 13.0576 4.45234 12.9794 4.45312H5.26062C5.1824 4.45234 5.10765 4.42072 5.05261 4.36513C4.99758 4.30954 4.9667 4.23448 4.9667 4.15625C4.9667 4.07802 4.99758 4.00296 5.05261 3.94737C5.10765 3.89178 5.1824 3.86016 5.26062 3.85938ZM5.26062 5.34375H12.9794C13.0576 5.34453 13.1323 5.37615 13.1874 5.43174C13.2424 5.48733 13.2733 5.5624 13.2733 5.64062C13.2733 5.71885 13.2424 5.79392 13.1874 5.84951C13.1323 5.9051 13.0576 5.93672 12.9794 5.9375H5.26062C5.1824 5.93672 5.10765 5.9051 5.05261 5.84951C4.99758 5.79392 4.9667 5.71885 4.9667 5.64062C4.9667 5.5624 4.99758 5.48733 5.05261 5.43174C5.10765 5.37615 5.1824 5.34453 5.26062 5.34375ZM5.26062 6.82812H12.9794C13.0576 6.82891 13.1323 6.86053 13.1874 6.91612C13.2424 6.97171 13.2733 7.04677 13.2733 7.125C13.2733 7.20323 13.2424 7.27829 13.1874 7.33388C13.1323 7.38947 13.0576 7.42109 12.9794 7.42188H5.26062C5.1824 7.42109 5.10765 7.38947 5.05261 7.33388C4.99758 7.27829 4.9667 7.20323 4.9667 7.125C4.9667 7.04677 4.99758 6.97171 5.05261 6.91612C5.10765 6.86053 5.1824 6.82891 5.26062 6.82812ZM5.26062 8.90625C5.1824 8.90547 5.10765 8.87385 5.05261 8.81826C4.99758 8.76267 4.9667 8.6876 4.9667 8.60938C4.9667 8.53115 4.99758 8.45608 5.05261 8.40049C5.10765 8.3449 5.1824 8.31328 5.26062 8.3125H8.52625C8.60447 8.31328 8.67922 8.3449 8.73426 8.40049C8.7893 8.45608 8.82017 8.53115 8.82017 8.60938C8.82017 8.6876 8.7893 8.76267 8.73426 8.81826C8.67922 8.87385 8.60447 8.90547 8.52625 8.90625H5.26062Z" fill="#4A4458"/>
<path d="M9.66625 12.9052L11.0853 14.3242L9.68406 14.725L9.41687 14.9952C9.36082 15.0504 9.28523 15.0812 9.20655 15.0809C9.12788 15.0806 9.05252 15.0492 8.99689 14.9936C8.94126 14.9379 8.90987 14.8626 8.90958 14.7839C8.90928 14.7052 8.9401 14.6296 8.99531 14.5736L9.26546 14.3064L9.66625 12.9052Z" fill="#4A4458"/>
<path d="M15.9362 9.59795L15.7344 9.79982L11.5662 13.9679L10.0225 12.4242L14.3925 8.0542C14.9347 8.59643 14.5436 8.20531 15.9362 9.59795Z" fill="#4A4458"/>
<path d="M18.1866 9.03388L15.2119 12.0086C15.1559 12.0635 15.0804 12.0941 15.0019 12.0936C14.9234 12.0931 14.8483 12.0615 14.793 12.0058C14.7378 11.9502 14.7067 11.8748 14.7068 11.7964C14.7068 11.7179 14.7379 11.6426 14.7933 11.587L17.1445 9.23575L16.72 8.81419L16.3548 9.17935C15.9944 8.81894 15.1566 7.98112 14.8111 7.63559L15.7819 6.66481C15.9866 6.4601 16.2642 6.34509 16.5538 6.34509C16.8433 6.34509 17.1209 6.4601 17.3256 6.66481C17.5303 6.86953 17.6453 7.14718 17.6453 7.43669C17.6453 7.7262 17.5303 8.00385 17.3256 8.20856L17.1416 8.39263L17.5631 8.81716L17.765 8.61231C17.8211 8.55733 17.8966 8.5267 17.9752 8.5271C18.0537 8.52749 18.129 8.55886 18.1845 8.61441C18.24 8.66995 18.2714 8.74517 18.2718 8.82371C18.2722 8.90226 18.2416 8.97779 18.1866 9.03388Z" fill="#4A4458"/>
</svg>
