<svg width="19" height="19" viewBox="0 0 19 19" fill="none" xmlns="http://www.w3.org/2000/svg">
<path d="M7.73703 13.9947L8.14375 12.5756C8.18812 12.418 8.28567 12.2806 8.41984 12.1867C14.7908 5.8189 14.4375 6.12551 14.7344 5.96719V2.375C14.7337 2.139 14.6396 1.91287 14.4728 1.74599C14.3059 1.57912 14.0797 1.48506 13.8438 1.48438H3.15625C2.92025 1.48506 2.69412 1.57912 2.52724 1.74599C2.36037 1.91287 2.26631 2.139 2.26562 2.375V16.625C2.26632 16.861 2.36037 17.0871 2.52725 17.254C2.69412 17.4209 2.92025 17.5149 3.15625 17.5156H13.8438C14.0797 17.5149 14.3059 17.4209 14.4728 17.254C14.6396 17.0871 14.7337 16.861 14.7344 16.625V12.3233L14.6305 12.4272C14.4607 12.5887 14.2354 12.6788 14.0011 12.6788C13.7668 12.6788 13.5415 12.5887 13.3717 12.4272C13.2993 12.3548 13.2401 12.2704 13.1966 12.1778L10.8037 14.5706C10.7064 14.7085 10.5633 14.8073 10.4 14.8497L8.99578 15.2534L8.83844 15.4137C8.75579 15.4968 8.65759 15.5627 8.54945 15.6078C8.44131 15.6529 8.32535 15.6763 8.20819 15.6765C8.09103 15.6768 7.97496 15.654 7.86661 15.6094C7.75827 15.5649 7.65976 15.4994 7.57672 15.4167C7.40901 15.2498 7.31448 15.0231 7.31392 14.7865C7.31365 14.6693 7.33645 14.5532 7.38103 14.4449C7.42561 14.3365 7.4911 14.238 7.57375 14.155L7.73703 13.9947ZM4.26062 3.85938H11.9794C12.0576 3.86016 12.1323 3.89178 12.1874 3.94737C12.2424 4.00296 12.2733 4.07802 12.2733 4.15625C12.2733 4.23448 12.2424 4.30954 12.1874 4.36513C12.1323 4.42072 12.0576 4.45234 11.9794 4.45312H4.26062C4.1824 4.45234 4.10765 4.42072 4.05261 4.36513C3.99758 4.30954 3.9667 4.23448 3.9667 4.15625C3.9667 4.07802 3.99758 4.00296 4.05261 3.94737C4.10765 3.89178 4.1824 3.86016 4.26062 3.85938ZM4.26062 5.34375H11.9794C12.0576 5.34453 12.1323 5.37615 12.1874 5.43174C12.2424 5.48733 12.2733 5.5624 12.2733 5.64062C12.2733 5.71885 12.2424 5.79392 12.1874 5.84951C12.1323 5.9051 12.0576 5.93672 11.9794 5.9375H4.26062C4.1824 5.93672 4.10765 5.9051 4.05261 5.84951C3.99758 5.79392 3.9667 5.71885 3.9667 5.64062C3.9667 5.5624 3.99758 5.48733 4.05261 5.43174C4.10765 5.37615 4.1824 5.34453 4.26062 5.34375ZM4.26062 6.82812H11.9794C12.0576 6.82891 12.1323 6.86053 12.1874 6.91612C12.2424 6.97171 12.2733 7.04677 12.2733 7.125C12.2733 7.20323 12.2424 7.27829 12.1874 7.33388C12.1323 7.38947 12.0576 7.42109 11.9794 7.42188H4.26062C4.1824 7.42109 4.10765 7.38947 4.05261 7.33388C3.99758 7.27829 3.9667 7.20323 3.9667 7.125C3.9667 7.04677 3.99758 6.97171 4.05261 6.91612C4.10765 6.86053 4.1824 6.82891 4.26062 6.82812ZM4.26062 8.90625C4.1824 8.90547 4.10765 8.87385 4.05261 8.81826C3.99758 8.76267 3.9667 8.6876 3.9667 8.60938C3.9667 8.53115 3.99758 8.45608 4.05261 8.40049C4.10765 8.3449 4.1824 8.31328 4.26062 8.3125H7.52625C7.60447 8.31328 7.67922 8.3449 7.73426 8.40049C7.7893 8.45608 7.82017 8.53115 7.82017 8.60938C7.82017 8.6876 7.7893 8.76267 7.73426 8.81826C7.67922 8.87385 7.60447 8.90547 7.52625 8.90625H4.26062Z" fill="#8E61C3"/>
<path d="M8.66622 12.9052L10.0853 14.3242L8.68403 14.725L8.41684 14.9952C8.36079 15.0504 8.2852 15.0812 8.20652 15.0809C8.12785 15.0806 8.05249 15.0492 7.99686 14.9936C7.94123 14.9379 7.90984 14.8626 7.90955 14.7839C7.90925 14.7052 7.94007 14.6296 7.99528 14.5736L8.26543 14.3064L8.66622 12.9052Z" fill="#8E61C3"/>
<path d="M14.9362 9.59795L14.7343 9.79982L10.5662 13.9679L9.02246 12.4242L13.3925 8.0542C13.9347 8.59643 13.5436 8.20531 14.9362 9.59795Z" fill="#8E61C3"/>
<path d="M17.1866 9.03388L14.2119 12.0086C14.1559 12.0635 14.0804 12.0941 14.0019 12.0936C13.9234 12.0931 13.8483 12.0615 13.793 12.0058C13.7378 11.9502 13.7067 11.8748 13.7068 11.7964C13.7068 11.7179 13.7379 11.6426 13.7933 11.587L16.1445 9.23575L15.72 8.81419L15.3548 9.17935C14.9944 8.81894 14.1566 7.98112 13.8111 7.63559L14.7819 6.66481C14.9866 6.4601 15.2642 6.34509 15.5538 6.34509C15.8433 6.34509 16.1209 6.4601 16.3256 6.66481C16.5303 6.86953 16.6453 7.14718 16.6453 7.43669C16.6453 7.7262 16.5303 8.00385 16.3256 8.20856L16.1416 8.39263L16.5631 8.81716L16.765 8.61231C16.8211 8.55733 16.8966 8.5267 16.9752 8.5271C17.0537 8.52749 17.129 8.55886 17.1845 8.61441C17.24 8.66995 17.2714 8.74517 17.2718 8.82371C17.2722 8.90226 17.2416 8.97779 17.1866 9.03388Z" fill="#8E61C3"/>
</svg>
