<svg width="17" height="17" viewBox="0 0 17 17" fill="none" xmlns="http://www.w3.org/2000/svg">
<g clip-path="url(#clip0_92_81)">
<mask id="mask0_92_81" style="mask-type:luminance" maskUnits="userSpaceOnUse" x="0" y="0" width="17" height="17">
<path d="M0 0H17V17H0V0Z" fill="white"/>
</mask>
<g mask="url(#mask0_92_81)">
<path d="M10.625 0.708374H2.83333C2.05416 0.708374 1.41666 1.34587 1.41666 2.12504V11.3334C1.41666 11.723 1.73541 12.0417 2.125 12.0417C2.51458 12.0417 2.83333 11.723 2.83333 11.3334V2.83337C2.83333 2.44379 3.15208 2.12504 3.54166 2.12504H10.625C11.0146 2.12504 11.3333 1.80629 11.3333 1.41671C11.3333 1.02712 11.0146 0.708374 10.625 0.708374ZM13.4583 3.54171H5.66666C4.8875 3.54171 4.25 4.17921 4.25 4.95837V14.875C4.25 15.6542 4.8875 16.2917 5.66666 16.2917H13.4583C14.2375 16.2917 14.875 15.6542 14.875 14.875V4.95837C14.875 4.17921 14.2375 3.54171 13.4583 3.54171ZM12.75 14.875H6.375C5.98541 14.875 5.66666 14.5563 5.66666 14.1667V5.66671C5.66666 5.27712 5.98541 4.95837 6.375 4.95837H12.75C13.1396 4.95837 13.4583 5.27712 13.4583 5.66671V14.1667C13.4583 14.5563 13.1396 14.875 12.75 14.875Z" fill="black"/>
</g>
</g>
<defs>
<clipPath id="clip0_92_81">
<rect width="17" height="17" fill="white"/>
</clipPath>
</defs>
</svg>
