<svg width="17" height="17" viewBox="0 0 17 17" fill="none" xmlns="http://www.w3.org/2000/svg">
<g clip-path="url(#clip0_92_81)">
<mask id="mask0_92_81" style="mask-type:luminance" maskUnits="userSpaceOnUse" x="0" y="0" width="17" height="17">
<path d="M0 0H17V17H0V0Z" fill="white"/>
</mask>
<g mask="url(#mask0_92_81)">
<path d="M10.625 0.708374H2.83329C2.05413 0.708374 1.41663 1.34587 1.41663 2.12504V11.3334C1.41663 11.723 1.73538 12.0417 2.12496 12.0417C2.51454 12.0417 2.83329 11.723 2.83329 11.3334V2.83337C2.83329 2.44379 3.15204 2.12504 3.54163 2.12504H10.625C11.0145 2.12504 11.3333 1.80629 11.3333 1.41671C11.3333 1.02712 11.0145 0.708374 10.625 0.708374ZM13.4583 3.54171H5.66663C4.88746 3.54171 4.24996 4.17921 4.24996 4.95837V14.875C4.24996 15.6542 4.88746 16.2917 5.66663 16.2917H13.4583C14.2375 16.2917 14.875 15.6542 14.875 14.875V4.95837C14.875 4.17921 14.2375 3.54171 13.4583 3.54171ZM12.75 14.875H6.37496C5.98538 14.875 5.66663 14.5563 5.66663 14.1667V5.66671C5.66663 5.27712 5.98538 4.95837 6.37496 4.95837H12.75C13.1395 4.95837 13.4583 5.27712 13.4583 5.66671V14.1667C13.4583 14.5563 13.1395 14.875 12.75 14.875Z" fill="#8E61C3"/>
</g>
</g>
<defs>
<clipPath id="clip0_92_81">
<rect width="17" height="17" fill="white"/>
</clipPath>
</defs>
</svg>
