<svg width="25" height="25" viewBox="0 0 25 25" fill="none" xmlns="http://www.w3.org/2000/svg">
<path d="M20.3125 15.625C18.5866 15.625 17.1875 14.2259 17.1875 12.5C17.1875 10.7741 18.5866 9.375 20.3125 9.375C22.0384 9.375 23.4375 10.7741 23.4375 12.5C23.4375 14.2259 22.0384 15.625 20.3125 15.625Z" fill="#8E61C3"/>
<path d="M12.5 15.625C10.7741 15.625 9.375 14.2259 9.375 12.5C9.375 10.7741 10.7741 9.375 12.5 9.375C14.2259 9.375 15.625 10.7741 15.625 12.5C15.625 14.2259 14.2259 15.625 12.5 15.625Z" fill="#8E61C3"/>
<path d="M4.6875 15.625C2.96161 15.625 1.5625 14.2259 1.5625 12.5C1.5625 10.7741 2.96161 9.375 4.6875 9.375C6.41339 9.375 7.8125 10.7741 7.8125 12.5C7.8125 14.2259 6.41339 15.625 4.6875 15.625Z" fill="#8E61C3"/>
</svg>
