<svg width="16" height="16" viewBox="0 0 16 16" fill="none" xmlns="http://www.w3.org/2000/svg">
<g clip-path="url(#clip0_106_1314)">
<path d="M12.6667 7.99996C12.298 7.99996 12 8.29863 12 8.66663V14C12 14.3673 11.7013 14.6666 11.3333 14.6666H2C1.632 14.6666 1.33333 14.3673 1.33333 14V4.66663C1.33333 4.29929 1.632 3.99996 2 3.99996H7.33333C7.702 3.99996 8 3.70129 8 3.33329C8 2.96529 7.702 2.66663 7.33333 2.66663H2C0.897333 2.66663 0 3.56396 0 4.66663V14C0 15.1026 0.897333 16 2 16H11.3333C12.436 16 13.3333 15.1026 13.3333 14V8.66663C13.3333 8.29796 13.0353 7.99996 12.6667 7.99996Z" fill="#8E61C3"/>
<path d="M6.25069 7.39271C6.20402 7.43938 6.17269 7.49871 6.15935 7.56271L5.68802 9.92004C5.66602 10.0294 5.70069 10.142 5.77935 10.2214C5.84269 10.2847 5.92802 10.3187 6.01535 10.3187C6.03669 10.3187 6.05869 10.3167 6.08069 10.312L8.43735 9.84071C8.50269 9.82738 8.56202 9.79604 8.60802 9.74938L13.8827 4.47471L11.526 2.11804L6.25069 7.39271Z" fill="#8E61C3"/>
<path d="M15.512 0.487988C14.862 -0.162012 13.8047 -0.162012 13.1553 0.487988L12.2327 1.41065L14.5893 3.76732L15.512 2.84466C15.8267 2.53066 16 2.11199 16 1.66665C16 1.22132 15.8267 0.802655 15.512 0.487988Z" fill="#8E61C3"/>
</g>
<defs>
<clipPath id="clip0_106_1314">
<rect width="16" height="16" fill="white"/>
</clipPath>
</defs>
</svg>
