<svg width="20" height="20" viewBox="0 0 20 20" fill="none" xmlns="http://www.w3.org/2000/svg">
<path d="M0.666687 16.6664V5.00037C0.666687 4.29312 0.94784 3.61472 1.44794 3.11462C1.94803 2.61453 2.62644 2.33337 3.33368 2.33337H9.16669L9.26923 2.33826C9.77336 2.38959 10.1667 2.8157 10.1667 3.33337C10.1667 3.85105 9.77336 4.27716 9.26923 4.32849L9.16669 4.33337H3.33368C3.15687 4.33337 2.98702 4.40366 2.862 4.52869C2.73698 4.65371 2.66669 4.82355 2.66669 5.00037V16.6664C2.66669 16.8432 2.73698 17.013 2.862 17.1381C2.98702 17.2631 3.15687 17.3334 3.33368 17.3334H14.9997C15.1765 17.3334 15.3463 17.2631 15.4714 17.1381C15.5964 17.013 15.6667 16.8432 15.6667 16.6664V10.8334C15.6667 10.2811 16.1144 9.83337 16.6667 9.83337C17.219 9.83337 17.6667 10.2811 17.6667 10.8334V16.6664C17.6667 17.3736 17.3855 18.052 16.8854 18.5521C16.3853 19.0522 15.7069 19.3334 14.9997 19.3334H3.33368C2.62643 19.3334 1.94803 19.0522 1.44794 18.5521C0.94784 18.052 0.666687 17.3736 0.666687 16.6664Z" fill="white"/>
<path d="M17.4343 3.33313C17.4342 3.12957 17.3536 2.9341 17.2097 2.79016C17.1016 2.68219 16.9647 2.60967 16.8171 2.5802L16.6667 2.56555C16.514 2.56555 16.3661 2.61103 16.2409 2.69446L16.1237 2.79016L8.40301 10.5099L8.04071 11.9581L9.48895 11.5958L17.2097 3.8761L17.3054 3.75891C17.3888 3.63374 17.4343 3.48576 17.4343 3.33313ZM19.4343 3.33313C19.4343 3.97541 19.2108 4.59453 18.8073 5.08704L18.6237 5.29016L10.7067 13.2072C10.6107 13.3031 10.4969 13.3788 10.3718 13.4288L10.2429 13.4698L6.90887 14.3038C6.56822 14.3888 6.20793 14.2884 5.95965 14.0402C5.71135 13.7918 5.6118 13.4317 5.69696 13.0909L6.52996 9.75793L6.57196 9.62903C6.62204 9.50373 6.69662 9.38919 6.79266 9.29309L14.7097 1.3761L14.9128 1.1925C15.4053 0.788982 16.0244 0.565552 16.6667 0.565552L16.9401 0.579224C17.5737 0.642109 18.1695 0.921953 18.6237 1.3761C19.1427 1.89511 19.4342 2.59914 19.4343 3.33313Z" fill="white"/>
</svg>
