<svg width="24" height="25" viewBox="0 0 24 25" fill="none" xmlns="http://www.w3.org/2000/svg">
<path d="M2.29299 2.79301C2.65921 2.42679 3.23908 2.40401 3.63186 2.72465L3.70803 2.79301L7.34768 6.43266C7.40277 6.47658 7.45312 6.52752 7.49904 6.58402L17.9004 16.9854C17.9633 17.034 18.0201 17.0916 18.0713 17.1563L21.708 20.793C22.0982 21.1835 22.0982 21.8166 21.708 22.2071C21.3175 22.5976 20.6835 22.5976 20.293 22.2071L17.1377 19.0518C15.693 19.897 13.9713 20.5 12 20.5C9.13864 20.4999 6.80567 19.2356 5.07717 17.793C3.5668 16.5324 2.47149 15.0992 1.82424 14.1319L1.57424 13.7471C1.46925 13.5809 1.32661 13.3688 1.23733 13.0772L1.20315 12.9463C1.14091 12.6744 1.14082 12.3246 1.20315 12.0528L1.2383 11.9229C1.32779 11.6308 1.46993 11.4177 1.57522 11.251L1.8799 10.7862C2.54837 9.79881 3.66553 8.3625 5.19729 7.11137L2.29299 4.20707L2.22463 4.1309C1.90451 3.7382 1.92714 3.15907 2.29299 2.79301ZM6.61818 8.53227C5.2109 9.64334 4.16807 10.9762 3.54201 11.8995L3.26662 12.3194C3.23115 12.3755 3.20636 12.415 3.18557 12.4493C3.17162 12.4722 3.16237 12.4881 3.15627 12.4991C3.16226 12.5099 3.17067 12.5269 3.18459 12.5498C3.20525 12.5839 3.2303 12.6238 3.26565 12.6797L3.48928 13.0235C4.06841 13.8884 5.04043 15.1568 6.35842 16.2569C7.86227 17.512 9.75687 18.4999 12 18.5C13.3528 18.5 14.5775 18.1412 15.667 17.5811L14.0313 15.9454C13.4359 16.2969 12.7412 16.5 12 16.5C9.79107 16.4998 8.00002 14.709 8.00002 12.5C8.00002 11.7588 8.20314 11.0642 8.55471 10.4688L6.61818 8.53227ZM20.9834 15.7227C20.6289 16.1461 19.9977 16.2022 19.5742 15.8477C19.1508 15.4931 19.0957 14.862 19.4502 14.4385L20.9834 15.7227ZM12 4.50004C14.8616 4.50004 17.1953 5.7644 18.9238 7.20707C20.65 8.64775 21.833 10.3144 22.4258 11.253L22.5235 11.4073C22.6085 11.5467 22.6989 11.7146 22.7627 11.9229L22.7979 12.0538L22.833 12.2696C22.8486 12.4203 22.8487 12.5808 22.833 12.7315L22.7979 12.9473C22.7358 13.2177 22.625 13.4268 22.5225 13.5948L22.4248 13.75C22.1065 14.2539 21.6234 14.9584 20.9834 15.7227L19.4502 14.4385C20.0213 13.7564 20.4521 13.1269 20.7334 12.6817L20.8155 12.5508C20.8297 12.5273 20.8386 12.5111 20.8447 12.5C20.8388 12.4893 20.83 12.4726 20.8164 12.4502L20.7354 12.3204C20.2027 11.477 19.1485 10.0002 17.6426 8.7432C16.1387 7.488 14.2434 6.50004 12 6.50004C11.6184 6.50006 11.2484 6.52905 10.8897 6.58207C10.3433 6.66285 9.8347 6.28467 9.75393 5.73832C9.67331 5.1921 10.0505 4.68435 10.5967 4.60355C11.0504 4.53647 11.5184 4.50006 12 4.50004ZM3.15725 12.5245V12.5225L3.15627 12.5205C3.15638 12.5222 3.15716 12.5235 3.15725 12.5245ZM10 12.5C10 13.6045 10.8956 14.4998 12 14.5C12.1786 14.5 12.3511 14.4735 12.5156 14.4297L10.0694 11.9834C10.0254 12.1483 10 12.3211 10 12.5Z" fill="#9A9A9A"/>
</svg>
