<svg width="30" height="30" viewBox="0 0 30 30" fill="none" xmlns="http://www.w3.org/2000/svg">
<g clip-path="url(#clip0_257_88)">
<path fill-rule="evenodd" clip-rule="evenodd" d="M2.96219 3.94837C6.21225 3.57207 9.04583 2.12713 11.2138 0.579834H18.4771C20.6451 2.12713 23.4787 3.57207 26.7288 3.94837C27.0227 3.98241 27.242 4.2284 27.242 4.52433V14.8294C27.242 21.818 20.1471 27.6904 14.8455 29.111C9.54385 27.6904 2.44897 21.818 2.44897 14.8295V4.52433C2.44897 4.2284 2.66818 3.98241 2.96219 3.94837ZM4.18862 5.52443V14.8295C4.18862 15.6194 4.2984 16.4023 4.50194 17.165C5.69991 21.6543 10.43 25.9233 14.8448 27.2999C17.6089 26.4338 20.404 24.4257 22.2819 22.3085C24.1123 20.245 25.5023 17.6465 25.5023 14.8295V5.52443C22.7815 5.03354 20.2207 3.87403 17.9314 2.31954H11.7596C9.47026 3.87403 6.90947 5.03354 4.18862 5.52443ZM5.34843 6.46694V14.8295C5.34843 15.5177 5.44521 16.2015 5.62255 16.866C6.69206 20.8741 10.9351 24.7177 14.8438 26.0784C17.2755 25.2265 19.7361 23.4309 21.4142 21.5389C23.05 19.6947 24.3425 17.3519 24.3425 14.8295V6.46694C21.9291 5.89603 19.6506 4.84229 17.5794 3.47934H12.1115C10.0404 4.84229 7.76181 5.89603 5.34843 6.46694ZM16.7032 8.25385H12.9878C12.8281 8.25385 12.6979 8.3841 12.6979 8.5438V11.4839H9.75783C9.59812 11.4839 9.46788 11.6141 9.46788 11.7738V15.4891C9.46788 15.6488 9.59812 15.7791 9.75783 15.7791H12.6979V18.7191C12.6979 18.8788 12.8281 19.0091 12.9878 19.0091H16.7032C16.8629 19.0091 16.9932 18.8788 16.9932 18.7191V15.7791H19.9331C20.0928 15.7791 20.2231 15.6488 20.2231 15.4891V11.7738C20.2231 11.6141 20.0928 11.4839 19.9331 11.4839H16.9932V8.5438C16.9931 8.3841 16.8629 8.25385 16.7032 8.25385Z" fill="#7B59A3"/>
</g>
<defs>
<clipPath id="clip0_257_88">
<rect width="29.691" height="29.691" fill="white"/>
</clipPath>
</defs>
</svg>
