<svg width="36" height="36" viewBox="0 0 36 36" fill="none" xmlns="http://www.w3.org/2000/svg">
<path d="M24.21 4.43994L10.665 8.93994C1.55999 11.9849 1.55999 16.9499 10.665 19.9799L14.685 21.3149L16.02 25.3349C19.05 34.4399 24.03 34.4399 27.06 25.3349L31.575 11.8049C33.585 5.72994 30.285 2.41494 24.21 4.43994V4.43994ZM24.69 12.5099L18.99 18.2399C18.765 18.4649 18.48 18.5699 18.195 18.5699C17.91 18.5699 17.625 18.4649 17.4 18.2399C17.1908 18.0282 17.0734 17.7426 17.0734 17.4449C17.0734 17.1473 17.1908 16.8616 17.4 16.6499L23.1 10.9199C23.535 10.4849 24.255 10.4849 24.69 10.9199C25.125 11.3549 25.125 12.0749 24.69 12.5099Z" fill="#8E61C3"/>
</svg>
