<svg width="23" height="23" viewBox="0 0 23 23" fill="none" xmlns="http://www.w3.org/2000/svg">
<g clip-path="url(#clip0_143_20)">
<path d="M13.6563 0H2.63542C1.17875 0 0 1.17875 0 2.63542V17.4896C0 18.9462 1.17875 20.125 2.63542 20.125H10.4458C9.64083 18.8504 9.10417 17.3458 9.10417 15.6208V13.2825C8.96042 13.3687 8.7975 13.4167 8.625 13.4167H3.83333C3.30625 13.4167 2.875 12.9854 2.875 12.4583C2.875 11.9312 3.30625 11.5 3.83333 11.5H8.625C8.80708 11.5 8.97 11.5479 9.11375 11.6342C9.15208 10.8196 9.53542 10.0721 10.1392 9.58333H3.83333C3.30625 9.58333 2.875 9.15208 2.875 8.625C2.875 8.09792 3.30625 7.66667 3.83333 7.66667H12.4583C12.8608 7.66667 13.2058 7.91583 13.3496 8.27042L16.0808 7.34083C16.1479 7.31208 16.215 7.29292 16.2917 7.28333V2.63542C16.2917 1.17875 15.1129 0 13.6563 0ZM7.66667 5.75H3.83333C3.30625 5.75 2.875 5.31875 2.875 4.79167C2.875 4.26458 3.30625 3.83333 3.83333 3.83333H7.66667C8.19375 3.83333 8.625 4.26458 8.625 4.79167C8.625 5.31875 8.19375 5.75 7.66667 5.75Z" fill="#F3994F"/>
<path d="M21.6221 10.8665L16.5909 9.15491C16.3906 9.08687 16.173 9.08687 15.9727 9.15491L10.9415 10.8665C10.5534 10.9987 10.2917 11.3639 10.2917 11.774V15.6246C10.2917 20.4805 15.6766 22.8265 15.9057 22.9242C16.0264 22.975 16.1548 23 16.2823 23C16.4097 23 16.5382 22.975 16.658 22.9233C16.887 22.8255 22.2719 20.4805 22.2719 15.6246V11.774C22.2719 11.3629 22.0112 10.9987 21.6221 10.8665ZM19.6844 14.4708L16.8094 18.3041C16.6426 18.5265 16.3887 18.6654 16.1107 18.6846C16.0877 18.6865 16.0647 18.6875 16.0427 18.6875C15.7887 18.6875 15.5453 18.5878 15.3652 18.4067L13.4485 16.49C13.0738 16.1153 13.0738 15.5096 13.4485 15.1349C13.8232 14.7602 14.4289 14.7602 14.8036 15.1349L15.9392 16.2705L18.151 13.3208C18.4682 12.8982 19.0691 12.811 19.4918 13.1291C19.9163 13.4463 20.0025 14.0472 19.6844 14.4708Z" fill="#F3994F"/>
</g>
<defs>
<clipPath id="clip0_143_20">
<rect width="23" height="23" fill="white"/>
</clipPath>
</defs>
</svg>
