<svg width="16" height="16" viewBox="0 0 16 16" fill="none" xmlns="http://www.w3.org/2000/svg">
<g clip-path="url(#clip0_92_64)">
<path fill-rule="evenodd" clip-rule="evenodd" d="M7.88516 13.4517V14.2491C7.88516 14.8885 7.56647 15.4406 7.01269 15.7603C6.74625 15.9141 6.44888 15.9999 6.14057 16C5.83197 16.0002 5.53469 15.9142 5.26807 15.7603L1.72257 13.7133C1.16872 13.3935 0.850098 12.8416 0.850098 12.2021V1.74494C0.850098 0.782719 1.63285 0 2.59504 0H10.4035C11.3658 0 12.1486 0.782656 12.1486 1.74494V3.94928C12.1486 4.2655 11.8918 4.52225 11.5756 4.52225C11.2593 4.52225 11.0028 4.26553 11.0028 3.94928V1.74494C11.0028 1.41453 10.7339 1.14569 10.4035 1.14569H3.56125L7.01269 3.13872C7.56629 3.45841 7.88516 4.01028 7.88516 4.64956V12.3059H10.4035C10.7339 12.3059 11.0028 12.0372 11.0028 11.7068V9.77441C11.0028 9.45797 11.2591 9.20144 11.5756 9.20144C11.8919 9.20144 12.1486 9.45803 12.1486 9.77441V11.7068C12.1486 12.6691 11.3658 13.4517 10.4035 13.4517H7.88516ZM13.194 7.29869L12.563 7.92966C12.3393 8.15337 12.3394 8.51606 12.563 8.73981C12.6707 8.84756 12.8158 8.90744 12.9681 8.90744C13.1206 8.90744 13.2655 8.84772 13.3734 8.73981L14.9821 7.13081C15.2058 6.90712 15.2058 6.54463 14.9821 6.32094L13.3734 4.71219C13.1496 4.48844 12.7869 4.48853 12.5631 4.71216C12.3394 4.93566 12.3395 5.2985 12.5631 5.52206L13.194 6.15287H8.96713C8.6506 6.15287 8.39429 6.40937 8.39429 6.72587C8.39429 7.04238 8.65063 7.29872 8.96713 7.29872H13.194V7.29869Z" fill="#8E61C3"/>
</g>
<defs>
<clipPath id="clip0_92_64">
<rect width="16" height="16" fill="white"/>
</clipPath>
</defs>
</svg>
