<svg width="16" height="16" viewBox="0 0 16 16" fill="none" xmlns="http://www.w3.org/2000/svg">
<g clip-path="url(#clip0_92_64)">
<path fill-rule="evenodd" clip-rule="evenodd" d="M7.88519 13.4517V14.2491C7.88519 14.8885 7.5665 15.4406 7.01272 15.7603C6.74628 15.9141 6.44891 15.9999 6.1406 16C5.832 16.0002 5.53472 15.9142 5.2681 15.7603L1.7226 13.7133C1.16875 13.3935 0.850128 12.8416 0.850128 12.2021V1.74494C0.850128 0.782719 1.63288 0 2.59507 0H10.4035C11.3658 0 12.1486 0.782656 12.1486 1.74494V3.94928C12.1486 4.2655 11.8918 4.52225 11.5756 4.52225C11.2593 4.52225 11.0028 4.26553 11.0028 3.94928V1.74494C11.0028 1.41453 10.7339 1.14569 10.4035 1.14569H3.56128L7.01272 3.13872C7.56632 3.45841 7.88519 4.01028 7.88519 4.64956V12.3059H10.4035C10.7339 12.3059 11.0028 12.0372 11.0028 11.7068V9.77441C11.0028 9.45797 11.2592 9.20144 11.5756 9.20144C11.892 9.20144 12.1486 9.45803 12.1486 9.77441V11.7068C12.1486 12.6691 11.3658 13.4517 10.4035 13.4517H7.88519ZM13.194 7.29869L12.5631 7.92966C12.3393 8.15337 12.3394 8.51606 12.5631 8.73981C12.6708 8.84756 12.8159 8.90744 12.9682 8.90744C13.1206 8.90744 13.2656 8.84772 13.3734 8.73981L14.9821 7.13081C15.2058 6.90713 15.2058 6.54463 14.9821 6.32094L13.3734 4.71219C13.1497 4.48844 12.7869 4.48853 12.5631 4.71216C12.3394 4.93566 12.3395 5.2985 12.5631 5.52206L13.194 6.15287H8.96716C8.65063 6.15287 8.39432 6.40937 8.39432 6.72587C8.39432 7.04237 8.65066 7.29872 8.96716 7.29872H13.194V7.29869Z" fill="#4A4458"/>
</g>
<defs>
<clipPath id="clip0_92_64">
<rect width="16" height="16" fill="white"/>
</clipPath>
</defs>
</svg>
