<svg width="134" height="55" viewBox="0 0 134 55" fill="none" xmlns="http://www.w3.org/2000/svg">
<path d="M12.2632 40.0028C12.5129 40.9379 11.9303 41.8731 11.0981 42.1281C10.1826 42.3832 9.26713 41.7881 9.01745 40.9379C8.76778 40.0028 9.35035 39.0677 10.1826 38.8126C11.0981 38.4726 12.0136 39.0676 12.2632 40.0028Z" fill="white"/>
<path d="M9.76639 34.7317C7.85221 36.1769 6.10449 37.8772 4.68967 39.6624C4.02387 40.5976 3.35807 41.5327 2.94194 42.6379C2.44259 43.6581 2.27614 44.7632 2.02647 45.7834C1.86002 46.8035 1.86002 47.9937 2.10969 49.0139C2.35937 50.034 2.85872 50.9692 3.60774 51.7343C4.35677 52.4994 5.35547 53.0945 6.43739 53.5196C7.51931 53.9446 8.68446 54.1997 9.84961 54.2847C8.68446 54.5397 7.43609 54.4547 6.18772 54.2847C4.93934 54.0296 3.77419 53.6046 2.69227 52.7544C1.61035 51.9043 0.778096 50.7141 0.445196 49.4389C0.0290719 48.1637 -0.054153 46.8035 0.0290719 45.4433C0.195522 44.0831 0.778096 42.8079 1.4439 41.7028C2.10969 40.5976 2.94194 39.6624 3.85742 38.8123C5.52192 37.1121 7.60254 35.7518 9.76639 34.7317Z" fill="white"/>
<path d="M35.233 6.25217C35.1498 3.44674 33.9014 1.66147 32.4033 0.726323C29.4905 -0.973937 24.497 -0.20882 19.4203 8.71755C12.2629 21.3845 12.1797 32.0111 14.0939 33.1163C14.6764 33.4563 15.9248 33.2013 17.5893 32.2662C21.3344 30.2258 27.1602 24.955 32.1537 16.1137C34.4007 12.0331 35.3162 8.71755 35.233 6.25217Z" fill="white"/>
<path d="M43.9713 6.59243C42.8062 5.48726 41.0584 4.89217 38.8114 5.31723C38.8114 5.57227 38.8946 5.91232 38.8946 6.16736C38.9778 9.31284 37.8127 12.9684 35.4824 17.049C30.3224 26.2304 24.247 31.7563 20.169 33.9666C19.9193 34.1367 19.6696 34.2217 19.3367 34.3917C21.0012 35.9219 30.8218 32.5214 40.4759 21.7248C47.3003 14.0736 46.4681 8.97279 43.9713 6.59243Z" fill="white"/>
<path d="M130.654 49.9761V35.0761H133.374V49.9761H130.654Z" fill="white"/>
<path d="M115.196 49.9761L120.336 35.0761H123.856L128.996 49.9761H126.036L124.976 46.7761H119.216L118.136 49.9761H115.196ZM119.996 44.3761H124.196L121.716 36.9561H122.476L119.996 44.3761Z" fill="white"/>
<path d="M102.436 36.7362L104.996 37.2562C104.236 38.3228 103.322 39.3095 102.256 40.2162C101.189 41.1095 99.8824 41.9095 98.3357 42.6162C98.2424 42.4295 98.1024 42.2228 97.9157 41.9962C97.7291 41.7695 97.5357 41.5495 97.3357 41.3362C97.1357 41.1228 96.9424 40.9562 96.7557 40.8362C98.1691 40.3028 99.3424 39.6762 100.276 38.9562C101.222 38.2228 101.942 37.4828 102.436 36.7362ZM102.976 38.0962H108.956V39.8762H101.356L102.976 38.0962ZM108.236 38.0962H108.696L109.116 37.9762L110.736 38.9562C110.069 40.0628 109.236 41.0495 108.236 41.9162C107.236 42.7695 106.109 43.5162 104.856 44.1562C103.616 44.7962 102.296 45.3428 100.896 45.7962C99.5091 46.2362 98.0957 46.5962 96.6557 46.8762C96.5491 46.5695 96.3891 46.2095 96.1757 45.7962C95.9624 45.3695 95.7491 45.0228 95.5357 44.7562C96.8691 44.5562 98.1824 44.2695 99.4757 43.8962C100.782 43.5228 102.002 43.0762 103.136 42.5562C104.282 42.0228 105.296 41.4095 106.176 40.7162C107.056 40.0228 107.742 39.2628 108.236 38.4362V38.0962ZM102.036 39.4362C102.809 40.3028 103.816 41.0562 105.056 41.6962C106.309 42.3362 107.729 42.8695 109.316 43.2962C110.916 43.7095 112.609 44.0028 114.396 44.1762C114.222 44.3628 114.036 44.5962 113.836 44.8762C113.649 45.1428 113.469 45.4228 113.296 45.7162C113.122 45.9962 112.982 46.2495 112.876 46.4762C111.036 46.2228 109.309 45.8362 107.696 45.3162C106.096 44.7828 104.642 44.1095 103.336 43.2962C102.029 42.4695 100.902 41.4895 99.9557 40.3562L102.036 39.4362ZM99.3157 45.4962H110.836V51.7362H108.356V47.4762H101.676V51.7762H99.3157V45.4962ZM100.496 49.1762H109.556V51.1562H100.496V49.1762ZM103.676 32.9962H106.156V35.8362H103.676V32.9962ZM96.3557 34.6162H113.596V39.0562H111.136V36.7962H98.7157V39.0562H96.3557V34.6162Z" fill="white"/>
<path d="M82.1557 34.4761H94.0157V36.3561H82.1557V34.4761ZM88.0157 45.7361H93.3557V47.5961H88.0157V45.7361ZM81.8157 39.9161H94.4757V41.7761H81.8157V39.9161ZM82.9957 37.1961H93.2157V44.5761H82.9957V42.7961H90.9957V39.0161H82.9957V37.1961ZM86.7357 32.9761H88.9557V50.5761L86.7357 49.2961V32.9761ZM82.8957 44.8561L85.0757 45.1361C84.8757 46.5495 84.5424 47.8361 84.0757 48.9961C83.6224 50.1428 83.0157 51.0961 82.2557 51.8561C82.1224 51.7361 81.9424 51.5895 81.7157 51.4161C81.5024 51.2428 81.2757 51.0761 81.0357 50.9161C80.8091 50.7561 80.6091 50.6295 80.4357 50.5361C81.1557 49.9095 81.7091 49.1028 82.0957 48.1161C82.4824 47.1295 82.7491 46.0428 82.8957 44.8561ZM84.4957 46.5561C84.8691 47.3828 85.3624 48.0095 85.9757 48.4361C86.5891 48.8628 87.2891 49.1495 88.0757 49.2961C88.8757 49.4428 89.7357 49.5228 90.6557 49.5361C90.8024 49.5361 91.0424 49.5361 91.3757 49.5361C91.7091 49.5361 92.0757 49.5361 92.4757 49.5361C92.8891 49.5361 93.2757 49.5361 93.6357 49.5361C93.9957 49.5228 94.2824 49.5095 94.4957 49.4961C94.4024 49.6561 94.3091 49.8628 94.2157 50.1161C94.1224 50.3695 94.0424 50.6228 93.9757 50.8761C93.9091 51.1295 93.8557 51.3561 93.8157 51.5561H93.0157H90.4957C89.3091 51.5561 88.2291 51.4361 87.2557 51.1961C86.2957 50.9695 85.4491 50.5428 84.7157 49.9161C83.9824 49.2761 83.3557 48.3695 82.8357 47.1961L84.4957 46.5561ZM75.3957 43.0361C76.1957 42.8628 77.1491 42.6295 78.2557 42.3361C79.3757 42.0428 80.5024 41.7361 81.6357 41.4161L81.9357 43.5761C80.9091 43.8828 79.8691 44.1895 78.8157 44.4961C77.7757 44.8028 76.8091 45.0828 75.9157 45.3361L75.3957 43.0361ZM75.7157 36.7761H81.8357V38.9761H75.7157V36.7761ZM77.8157 32.9961H80.0157V49.2361C80.0157 49.7828 79.9557 50.2161 79.8357 50.5361C79.7291 50.8695 79.5224 51.1295 79.2157 51.3161C78.9224 51.5028 78.5491 51.6295 78.0957 51.6961C77.6557 51.7628 77.1024 51.7895 76.4357 51.7761C76.4091 51.4828 76.3357 51.1161 76.2157 50.6761C76.0957 50.2495 75.9624 49.8761 75.8157 49.5561C76.1891 49.5695 76.5291 49.5828 76.8357 49.5961C77.1557 49.5961 77.3757 49.5895 77.4957 49.5761C77.6157 49.5761 77.6957 49.5561 77.7357 49.5161C77.7891 49.4628 77.8157 49.3695 77.8157 49.2361V32.9961Z" fill="white"/>
<path d="M65.0557 37.4561H70.9557V39.2361H65.0557V37.4561ZM64.5757 41.8961V43.7761H65.8157V41.8961H64.5757ZM62.8757 40.3361H67.5957V45.3761H62.8757V40.3361ZM70.1957 41.8961V43.7761H71.4957V41.8961H70.1957ZM68.4557 40.3361H73.3357V45.3761H68.4557V40.3361ZM64.3757 45.6761L66.4557 46.0761C66.1357 47.2761 65.6557 48.3761 65.0157 49.3761C64.3891 50.3628 63.6624 51.1694 62.8357 51.7961C62.7291 51.6628 62.5824 51.4961 62.3957 51.2961C62.2091 51.1094 62.0091 50.9228 61.7957 50.7361C61.5957 50.5494 61.4224 50.4028 61.2757 50.2961C62.0357 49.7761 62.6757 49.1161 63.1957 48.3161C63.7291 47.5161 64.1224 46.6361 64.3757 45.6761ZM64.3357 48.3561L65.6557 47.0761C66.0291 47.3694 66.4091 47.7094 66.7957 48.0961C67.1824 48.4694 67.4824 48.7961 67.6957 49.0761L66.2957 50.4761C66.0957 50.1828 65.8091 49.8361 65.4357 49.4361C65.0624 49.0228 64.6957 48.6628 64.3357 48.3561ZM69.6957 45.6561L71.8357 45.9561C71.5824 47.2228 71.1824 48.3561 70.6357 49.3561C70.0891 50.3428 69.3824 51.1561 68.5157 51.7961C68.4224 51.6628 68.2757 51.4961 68.0757 51.2961C67.8891 51.1094 67.6957 50.9161 67.4957 50.7161C67.3091 50.5294 67.1357 50.3828 66.9757 50.2761C67.7224 49.7694 68.3157 49.1228 68.7557 48.3361C69.2091 47.5361 69.5224 46.6428 69.6957 45.6561ZM69.4157 48.4761L70.8557 47.1361C71.2424 47.4294 71.6557 47.7561 72.0957 48.1161C72.5357 48.4628 72.9557 48.8228 73.3557 49.1961C73.7557 49.5561 74.0824 49.8828 74.3357 50.1761L72.7957 51.6961C72.5557 51.3894 72.2424 51.0494 71.8557 50.6761C71.4824 50.3028 71.0757 49.9228 70.6357 49.5361C70.2091 49.1361 69.8024 48.7828 69.4157 48.4761ZM67.9757 35.1761C67.6157 35.7228 67.1557 36.2894 66.5957 36.8761C66.0357 37.4628 65.4157 38.0161 64.7357 38.5361C64.0691 39.0428 63.3757 39.4761 62.6557 39.8361C62.5357 39.5294 62.3624 39.1828 62.1357 38.7961C61.9224 38.3961 61.7091 38.0628 61.4957 37.7961C62.2291 37.4628 62.9291 37.0361 63.5957 36.5161C64.2757 35.9828 64.8891 35.4161 65.4357 34.8161C65.9957 34.2028 66.4424 33.6028 66.7757 33.0161H69.0157C69.4824 33.6828 70.0157 34.3161 70.6157 34.9161C71.2157 35.5161 71.8557 36.0494 72.5357 36.5161C73.2291 36.9694 73.9224 37.3361 74.6157 37.6161C74.3757 37.9094 74.1357 38.2628 73.8957 38.6761C73.6691 39.0761 73.4757 39.4494 73.3157 39.7961C72.6491 39.4494 71.9824 39.0294 71.3157 38.5361C70.6491 38.0294 70.0224 37.4894 69.4357 36.9161C68.8491 36.3294 68.3624 35.7494 67.9757 35.1761ZM56.3957 33.8361H61.0357V35.9961H58.4957V51.7761H56.3957V33.8361ZM60.3157 33.8361H60.6957L61.0357 33.7561L62.5957 34.6561C62.4357 35.2161 62.2557 35.8228 62.0557 36.4761C61.8691 37.1294 61.6757 37.7694 61.4757 38.3961C61.2757 39.0094 61.0824 39.5828 60.8957 40.1161C61.4957 40.8894 61.8824 41.6161 62.0557 42.2961C62.2424 42.9628 62.3357 43.5894 62.3357 44.1761C62.3357 44.8161 62.2624 45.3494 62.1157 45.7761C61.9824 46.2028 61.7557 46.5294 61.4357 46.7561C61.2757 46.8628 61.1024 46.9494 60.9157 47.0161C60.7291 47.0828 60.5291 47.1361 60.3157 47.1761C60.1424 47.1894 59.9424 47.2028 59.7157 47.2161C59.5024 47.2294 59.2757 47.2294 59.0357 47.2161C59.0224 46.9361 58.9757 46.5961 58.8957 46.1961C58.8157 45.7961 58.6957 45.4561 58.5357 45.1761C58.6957 45.1894 58.8424 45.1961 58.9757 45.1961C59.1224 45.1961 59.2491 45.1961 59.3557 45.1961C59.5957 45.1961 59.7757 45.1428 59.8957 45.0361C60.0157 44.9428 60.0957 44.7961 60.1357 44.5961C60.1891 44.3961 60.2157 44.1561 60.2157 43.8761C60.2157 43.4094 60.1291 42.8761 59.9557 42.2761C59.7824 41.6761 59.4224 41.0428 58.8757 40.3761C59.0224 39.9228 59.1624 39.4294 59.2957 38.8961C59.4291 38.3494 59.5624 37.8028 59.6957 37.2561C59.8291 36.7094 59.9491 36.2028 60.0557 35.7361C60.1624 35.2561 60.2491 34.8561 60.3157 34.5361V33.8361Z" fill="white"/>
<path d="M46.6357 40.0561H49.0357V51.7761H46.6357V40.0561ZM41.3557 42.5761H54.2157V44.7361H41.3557V42.5761ZM49.4957 43.5361C49.8691 44.2561 50.3357 44.9695 50.8957 45.6761C51.4691 46.3828 52.0891 47.0361 52.7557 47.6361C53.4357 48.2361 54.1224 48.7361 54.8157 49.1361C54.6424 49.2695 54.4424 49.4495 54.2157 49.6761C54.0024 49.9028 53.7957 50.1361 53.5957 50.3761C53.4091 50.6161 53.2491 50.8361 53.1157 51.0361C52.4224 50.5428 51.7357 49.9295 51.0557 49.1961C50.3891 48.4628 49.7624 47.6695 49.1757 46.8161C48.6024 45.9495 48.1091 45.0695 47.6957 44.1761L49.4957 43.5361ZM46.2957 43.3361L48.1757 43.9961C47.7491 44.9295 47.2291 45.8428 46.6157 46.7361C46.0024 47.6161 45.3291 48.4228 44.5957 49.1561C43.8624 49.8761 43.0957 50.4895 42.2957 50.9961C42.1757 50.7961 42.0157 50.5761 41.8157 50.3361C41.6291 50.0961 41.4291 49.8695 41.2157 49.6561C41.0157 49.4295 40.8224 49.2361 40.6357 49.0761C41.4091 48.6761 42.1557 48.1761 42.8757 47.5761C43.5957 46.9628 44.2491 46.2961 44.8357 45.5761C45.4357 44.8428 45.9224 44.0961 46.2957 43.3361ZM44.9557 35.9761V38.6561H50.8357V35.9761H44.9557ZM42.6957 33.8561H53.2557V40.7561H42.6957V33.8561ZM40.0757 33.0361L42.2957 33.7561C41.8557 34.8895 41.3291 36.0228 40.7157 37.1561C40.1157 38.2761 39.4624 39.3428 38.7557 40.3561C38.0624 41.3561 37.3491 42.2361 36.6157 42.9961C36.5491 42.7961 36.4424 42.5428 36.2957 42.2361C36.1491 41.9295 35.9891 41.6161 35.8157 41.2961C35.6424 40.9761 35.4824 40.7228 35.3357 40.5361C35.9624 39.9228 36.5691 39.2161 37.1557 38.4161C37.7424 37.6161 38.2824 36.7561 38.7757 35.8361C39.2824 34.9161 39.7157 33.9828 40.0757 33.0361ZM38.1357 38.5561L40.4157 36.2761V36.2961V51.7161H38.1357V38.5561Z" fill="white"/>
</svg>
