<svg width="41" height="42" viewBox="0 0 41 42" fill="none" xmlns="http://www.w3.org/2000/svg">
<path d="M13.2695 30.8901C13.4582 31.5889 13.0179 32.2876 12.3888 32.4782C11.6968 32.6688 11.0048 32.2241 10.8161 31.5889C10.6273 30.8901 11.0677 30.1914 11.6968 30.0008C12.3888 29.7467 13.0808 30.1914 13.2695 30.8901Z" fill="#8E61C3"/>
<path d="M11.3823 26.9518C9.93535 28.0317 8.61427 29.3021 7.54482 30.6361C7.04155 31.3348 6.53827 32.0336 6.22373 32.8594C5.84628 33.6217 5.72046 34.4474 5.53173 35.2097C5.40592 35.972 5.40592 36.8613 5.59464 37.6236C5.78337 38.3858 6.16082 39.0846 6.727 39.6563C7.29318 40.228 8.04809 40.6727 8.8659 40.9903C9.68372 41.3079 10.5644 41.4985 11.4452 41.562C10.5644 41.7525 9.62081 41.689 8.67717 41.562C7.73354 41.3714 6.85282 41.0538 6.035 40.4186C5.21719 39.7833 4.5881 38.894 4.33647 37.9412C4.02192 36.9883 3.95901 35.972 4.02192 34.9556C4.14774 33.9393 4.5881 32.9864 5.09137 32.1606C5.59464 31.3348 6.22373 30.6361 6.91573 30.0009C8.1739 28.7304 9.74662 27.7141 11.3823 26.9518Z" fill="#8E61C3"/>
<path d="M30.6324 5.67168C30.5695 3.57544 29.6259 2.24146 28.4935 1.54272C26.2917 0.272264 22.5172 0.843968 18.6798 7.51384C13.2696 16.9787 13.2067 24.919 14.6536 25.7448C15.094 25.9989 16.0376 25.8083 17.2958 25.1096C20.1267 23.585 24.5303 19.6466 28.3048 13.0403C30.0034 9.99122 30.6954 7.51384 30.6324 5.67168Z" fill="#8E61C3"/>
<path d="M37.2377 5.92584C36.357 5.10004 35.0359 4.65538 33.3374 4.973C33.3374 5.16356 33.4003 5.41765 33.4003 5.60822C33.4632 7.95856 32.5825 10.69 30.821 13.7391C26.9207 20.5995 22.3283 24.7285 19.2458 26.3801C19.0571 26.5071 18.8683 26.5707 18.6167 26.6977C19.8749 27.8411 27.2981 25.3002 34.5955 17.2329C39.7541 11.5158 39.125 7.70447 37.2377 5.92584Z" fill="#8E61C3"/>
</svg>
