<svg width="20" height="24" viewBox="0 0 20 24" fill="none" xmlns="http://www.w3.org/2000/svg">
<path d="M5.35589 17.2703C5.46494 17.674 5.2105 18.0778 4.84702 18.1879C4.44719 18.298 4.04736 18.0411 3.93831 17.674C3.82927 17.2703 4.0837 16.8666 4.44719 16.7565C4.84702 16.6096 5.24685 16.8666 5.35589 17.2703Z" fill="#8E61C3"/>
<path d="M4.2654 14.9946C3.4294 15.6186 2.66608 16.3526 2.04817 17.1234C1.75738 17.5271 1.46659 17.9309 1.28485 18.408C1.06676 18.8484 0.994067 19.3256 0.885023 19.766C0.812326 20.2064 0.812326 20.7203 0.921371 21.1607C1.03042 21.6011 1.2485 22.0049 1.57564 22.3352C1.90277 22.6655 2.33895 22.9224 2.81148 23.1059C3.284 23.2895 3.79288 23.3996 4.30175 23.4363C3.79288 23.5464 3.24766 23.5097 2.70243 23.4363C2.15721 23.3262 1.64833 23.1427 1.17581 22.7756C0.703282 22.4086 0.3398 21.8948 0.194407 21.3442C0.0126662 20.7937 -0.023682 20.2064 0.0126662 19.6192C0.0853626 19.0319 0.3398 18.4814 0.630585 18.0043C0.921371 17.5271 1.28485 17.1234 1.68468 16.7564C2.41165 16.0223 3.32035 15.4351 4.2654 14.9946Z" fill="#8E61C3"/>
<path d="M15.388 2.69926C15.3516 1.48807 14.8064 0.717308 14.1521 0.313577C12.8799 -0.420479 10.699 -0.0901543 8.4818 3.76364C5.35586 9.23236 5.31951 13.8202 6.15552 14.2973C6.40995 14.4442 6.95518 14.3341 7.68214 13.9303C9.31781 13.0495 11.8622 10.7739 14.0431 6.95678C15.0245 5.19505 15.4243 3.76364 15.388 2.69926Z" fill="#8E61C3"/>
<path d="M19.2045 2.84638C18.6956 2.36925 17.9323 2.11233 16.9509 2.29584C16.9509 2.40595 16.9873 2.55276 16.9873 2.66287C17.0236 4.02087 16.5147 5.59909 15.497 7.36083C13.2434 11.3247 10.59 13.7104 8.80892 14.6647C8.69987 14.7381 8.59083 14.7748 8.44543 14.8482C9.1724 15.5089 13.4615 14.0407 17.6779 9.37948C20.6584 6.07623 20.2949 3.87406 19.2045 2.84638Z" fill="#8E61C3"/>
</svg>
