<svg width="24" height="24" viewBox="0 0 24 24" fill="none" xmlns="http://www.w3.org/2000/svg">
<path d="M2.20855 20.975L15.7663 20.975C16.9841 20.975 17.9749 19.9842 17.9749 18.7649C17.9749 17.5471 16.9841 16.5563 15.7663 16.5563L2.20859 16.5563C0.990783 16.5563 -1.35425e-05 17.5471 -1.3649e-05 18.7649C-6.06306e-05 19.9842 0.990737 20.975 2.20855 20.975Z" fill="#718096"/>
<path d="M21.7905 20.975C23.0088 20.975 23.9999 19.9839 23.9999 18.7656C23.9999 17.5474 23.0088 16.5563 21.7905 16.5563C20.5723 16.5563 19.5812 17.5474 19.5812 18.7656C19.5812 19.9839 20.5723 20.975 21.7905 20.975Z" fill="#718096"/>
<path d="M21.7905 14.1969C23.0088 14.1969 23.9999 13.2058 23.9999 11.9875C23.9999 10.7693 23.0088 9.77818 21.7905 9.77818C20.5723 9.77818 19.5812 10.7693 19.5812 11.9875C19.5812 13.2058 20.5723 14.1969 21.7905 14.1969Z" fill="#718096"/>
<path d="M21.7905 7.4187C23.0088 7.4187 23.9999 6.42758 23.9999 5.20934C23.9999 3.99111 23.0088 2.99999 21.7905 2.99999C20.5723 2.99999 19.5812 3.99111 19.5812 5.20934C19.5812 6.42758 20.5723 7.4187 21.7905 7.4187Z" fill="#718096"/>
<path d="M2.20855 14.1969L15.7663 14.1969C16.9841 14.1969 17.9749 13.2061 17.9749 11.9868C17.9749 10.769 16.9841 9.77818 15.7663 9.77818L2.20859 9.77818C0.990783 9.77818 -1.35425e-05 10.769 -1.3649e-05 11.9868C-6.06306e-05 13.2061 0.990737 14.1969 2.20855 14.1969Z" fill="#718096"/>
<path d="M2.20855 7.4187L15.7663 7.4187C16.9841 7.4187 17.9749 6.42791 17.9749 5.20859C17.9749 3.99078 16.9841 2.99999 15.7663 2.99999L2.20859 2.99998C0.990783 2.99998 -1.35425e-05 3.99078 -1.3649e-05 5.20859C-6.06306e-05 6.4279 0.990737 7.4187 2.20855 7.4187Z" fill="#718096"/>
</svg>
