<svg width="18" height="18" viewBox="0 0 18 18" fill="none" xmlns="http://www.w3.org/2000/svg">
<g clip-path="url(#clip0_376_332)">
<path d="M13.7637 8.50204V5.04616C13.7637 4.90622 13.7082 4.77205 13.6092 4.67331L9.0905 0.154495C8.99162 0.0556183 8.85745 0 8.71765 0H0.527344C0.236069 0 0 0.236069 0 0.527344V17.4727C0 17.7639 0.236069 18 0.527344 18H13.2363C15.863 18 18 15.863 18 13.2363C18 10.7879 16.1432 8.7653 13.7637 8.50204ZM9.245 1.80052L11.9632 4.51868H9.245V1.80052ZM1.05469 16.9453V1.05469H8.19031V5.04602C8.19031 5.3373 8.42638 5.57336 8.71765 5.57336H12.709V8.50204C10.3295 8.7653 8.47266 10.7879 8.47266 13.2363C8.47266 14.7335 9.16713 16.0714 10.2507 16.9453H1.05469ZM13.2363 16.9453C11.1912 16.9453 9.52734 15.2814 9.52734 13.2363C9.52734 11.1912 11.1912 9.52734 13.2363 9.52734C15.2814 9.52734 16.9453 11.1912 16.9453 13.2363C16.9453 15.2814 15.2814 16.9453 13.2363 16.9453Z" fill="white"/>
<path d="M14.6485 12.709H13.7637V11.8242C13.7637 11.5331 13.5276 11.2969 13.2364 11.2969C12.9451 11.2969 12.709 11.5331 12.709 11.8242V12.709H11.8243C11.5331 12.709 11.297 12.9451 11.297 13.2364C11.297 13.5276 11.5331 13.7637 11.8243 13.7637H12.709V14.6485C12.709 14.9397 12.9451 15.1759 13.2364 15.1759C13.5276 15.1759 13.7637 14.9397 13.7637 14.6485V13.7637H14.6485C14.9398 13.7637 15.1759 13.5276 15.1759 13.2364C15.1759 12.9451 14.9398 12.709 14.6485 12.709Z" fill="white"/>
</g>
<defs>
<clipPath id="clip0_376_332">
<rect width="18" height="18" fill="white"/>
</clipPath>
</defs>
</svg>
