<svg width="30" height="30" viewBox="0 0 30 30" fill="none" xmlns="http://www.w3.org/2000/svg">
<path d="M26.9854 28.747L25.1474 8.41707C25.0972 7.86187 24.6287 7.43661 24.0676 7.43661H20.2772V5.73873C20.2772 2.57439 17.6854 0 14.4996 0C11.3139 0 8.72233 2.57439 8.72233 5.73873V7.43661H4.92938C4.36822 7.43661 3.89972 7.86187 3.84956 8.41707L2.00434 28.827C1.97716 29.1282 2.07864 29.4267 2.28405 29.6498C2.48946 29.8729 2.77987 30 3.08415 30H25.913C25.9138 30 25.915 30 25.9158 30C26.5147 30 27 29.5179 27 28.9232C26.9999 28.8633 26.9949 28.8043 26.9854 28.747ZM10.8906 5.73873C10.8906 3.76188 12.5096 2.15358 14.4997 2.15358C16.4899 2.15358 18.1091 3.76188 18.1091 5.73873V7.43661H10.8906V5.73873ZM4.27007 27.8466L5.92059 9.5902H8.72233V11.5158C8.72233 12.1105 9.2076 12.5926 9.80648 12.5926C10.4054 12.5926 10.8906 12.1105 10.8906 11.5158V9.5902H18.1091V11.5158C18.1091 12.1105 18.5943 12.5926 19.1932 12.5926C19.7921 12.5926 20.2774 12.1105 20.2774 11.5158V9.5902H23.0765L24.727 27.8466H4.27007Z" fill="#8E61C3"/>
</svg>
