<svg width="23" height="23" viewBox="0 0 23 23" fill="none" xmlns="http://www.w3.org/2000/svg">
<path d="M16.8009 4.44896C16.6429 4.40516 16.4755 4.40918 16.3198 4.46051C16.1641 4.51185 16.0271 4.6082 15.9262 4.73737L15.3855 5.42894C14.1593 4.67344 12.7406 4.28903 11.3008 4.32213C9.86087 4.35523 8.46135 4.80442 7.27115 5.61547C6.08095 6.42651 5.15096 7.56474 4.59347 8.89274C4.03597 10.2207 3.8748 11.6817 4.12941 13.0993C4.38402 14.5169 5.04353 15.8305 6.02832 16.8814C7.01311 17.9324 8.28106 18.6759 9.67911 19.022C11.0772 19.3682 12.5455 19.3023 13.9069 18.8323C15.2683 18.3622 16.4646 17.5081 17.3512 16.3731C17.4866 16.1999 17.5477 15.9801 17.521 15.7618C17.4942 15.5436 17.3819 15.345 17.2087 15.2096C17.0355 15.0742 16.8156 15.0131 16.5974 15.0398C16.3792 15.0666 16.1806 15.1789 16.0452 15.3521C15.361 16.2293 14.439 16.8914 13.3892 17.2594C12.3393 17.6275 11.2058 17.6859 10.1236 17.4278C9.04144 17.1697 8.05629 16.606 7.28551 15.8038C6.51474 15.0015 5.99084 13.9946 5.77623 12.903C5.56162 11.8114 5.66534 10.6811 6.07505 9.64678C6.48476 8.61246 7.18318 7.71773 8.08709 7.06918C8.99101 6.42063 10.0623 6.04561 11.1734 5.9888C12.2844 5.93198 13.3884 6.19577 14.3537 6.74874L13.8841 7.34953C13.7831 7.47869 13.7228 7.63488 13.7106 7.79835C13.6984 7.96181 13.735 8.12522 13.8156 8.26791C13.8963 8.4106 14.0175 8.52617 14.1638 8.6C14.3102 8.67384 14.4751 8.70262 14.6378 8.68272L16.965 8.39771C17.1832 8.37096 17.3818 8.25865 17.5171 8.08549C17.6525 7.91233 17.7136 7.69249 17.6869 7.47431L17.4019 5.14716C17.382 4.98438 17.3143 4.83116 17.2073 4.70688C17.1003 4.58259 16.9589 4.49284 16.8009 4.44896Z" fill="black"/>
</svg>
