<svg width="16" height="16" viewBox="0 0 16 16" fill="none" xmlns="http://www.w3.org/2000/svg">
<path d="M12.1895 2.8656C12.0745 2.8341 11.9525 2.83699 11.8391 2.87391C11.7258 2.91082 11.626 2.98009 11.5525 3.07297L11.1587 3.57022C10.2656 3.027 9.23225 2.75061 8.18349 2.77441C7.13474 2.7982 6.11538 3.12118 5.24849 3.70433C4.3816 4.28748 3.70424 5.10589 3.29818 6.06073C2.89212 7.01558 2.77473 8.06605 2.96018 9.08531C3.14563 10.1046 3.62599 11.0491 4.34327 11.8047C5.06054 12.5604 5.98407 13.095 7.00235 13.3439C8.02063 13.5928 9.09013 13.5454 10.0817 13.2074C11.0733 12.8694 11.9446 12.2553 12.5904 11.4393C12.689 11.3147 12.7335 11.1566 12.714 10.9997C12.6946 10.8428 12.6128 10.7 12.4866 10.6026C12.3605 10.5053 12.2003 10.4614 12.0414 10.4806C11.8824 10.4998 11.7377 10.5806 11.6391 10.7051C11.1408 11.3359 10.4693 11.8119 9.7046 12.0765C8.93992 12.3411 8.11429 12.3832 7.3261 12.1976C6.5379 12.012 5.82035 11.6067 5.25895 11.0299C4.69755 10.453 4.31597 9.72906 4.15965 8.94417C4.00334 8.15929 4.07889 7.34659 4.37731 6.6029C4.67572 5.85921 5.18442 5.21589 5.84279 4.74957C6.50117 4.28326 7.28146 4.01361 8.09071 3.97276C8.89995 3.93191 9.70404 4.12158 10.4072 4.51917L10.0651 4.95115C9.99154 5.04402 9.94757 5.15632 9.9387 5.27385C9.92983 5.39139 9.95646 5.50888 10.0152 5.61148C10.074 5.71407 10.1622 5.79717 10.2688 5.85025C10.3754 5.90334 10.4956 5.92404 10.6141 5.90973L12.3091 5.70481C12.468 5.68557 12.6127 5.60482 12.7113 5.48031C12.8099 5.35581 12.8543 5.19774 12.8349 5.04087L12.6273 3.36761C12.6128 3.25057 12.5635 3.1404 12.4856 3.05104C12.4077 2.96168 12.3046 2.89715 12.1895 2.8656Z" fill="white"/>
</svg>
