<svg width="16" height="16" viewBox="0 0 16 16" fill="none" xmlns="http://www.w3.org/2000/svg">
<path d="M4.15133 7.33331H11.8493C12.424 7.33331 12.7293 6.65332 12.3473 6.22332L8.49866 1.89331C8.43624 1.82285 8.35957 1.76644 8.27372 1.7278C8.18787 1.68917 8.09481 1.66919 8.00067 1.66919C7.90653 1.66919 7.81346 1.68917 7.72761 1.7278C7.64176 1.76644 7.56509 1.82285 7.50266 1.89331L3.65266 6.22332C3.27067 6.65332 3.576 7.33331 4.15133 7.33331ZM7.502 14.106C7.56443 14.1764 7.6411 14.2329 7.72694 14.2715C7.81279 14.3101 7.90586 14.3301 8 14.3301C8.09414 14.3301 8.18721 14.3101 8.27305 14.2715C8.3589 14.2329 8.43557 14.1764 8.498 14.106L12.3467 9.77598C12.7293 9.34665 12.424 8.66665 11.8487 8.66665H4.15133C3.57667 8.66665 3.27133 9.34665 3.65333 9.77665L7.502 14.106Z" fill="#9E9E9E"/>
</svg>
