<svg width="23" height="22" viewBox="0 0 23 22" fill="none" xmlns="http://www.w3.org/2000/svg">
<path fill-rule="evenodd" clip-rule="evenodd" d="M13.8705 13.6385C10.6862 13.6385 8.11424 11.0264 8.11424 7.81543C8.11424 11.0264 5.5321 13.6385 2.358 13.6385C5.5321 13.6385 8.11424 16.2403 8.11424 19.4513C8.11424 16.2403 10.6862 13.6385 13.8705 13.6385Z" fill="white"/>
<path fill-rule="evenodd" clip-rule="evenodd" d="M19.7798 16.643C18.0346 16.643 16.6261 15.2078 16.6261 13.4526C16.6261 15.2078 15.2075 16.643 13.4725 16.643C15.2075 16.643 16.6261 18.0678 16.6261 19.8333C16.6261 18.0678 18.0346 16.643 19.7798 16.643Z" fill="white"/>
<path fill-rule="evenodd" clip-rule="evenodd" d="M17.9632 6.93785C15.8403 6.93785 14.1257 5.20331 14.1257 3.05579C14.1257 5.20331 12.4111 6.93785 10.2882 6.93785C12.4111 6.93785 14.1257 8.67239 14.1257 10.8199C14.1257 8.67239 15.8403 6.93785 17.9632 6.93785Z" fill="white"/>
</svg>
