<svg width="17" height="17" viewBox="0 0 17 17" fill="none" xmlns="http://www.w3.org/2000/svg">
<path d="M4.39804 9.59661C4.36536 9.63032 4.3263 9.6572 4.28312 9.67566C4.23995 9.69413 4.19354 9.70382 4.14658 9.70417H4.14382C4.0499 9.70415 3.95983 9.66682 3.89343 9.6004L3.46835 9.17552C3.40257 9.10898 3.36579 9.01911 3.36605 8.92554C3.36632 8.83197 3.4036 8.7423 3.46977 8.67614C3.53593 8.60997 3.62559 8.57268 3.71916 8.57241C3.81273 8.57214 3.9026 8.60892 3.96915 8.6747L4.14 8.84539L4.81895 8.14587H3.1875V9.91671H4.95833V9.01932L4.39804 9.59661Z" fill="#8E61C3"/>
<path d="M3.1875 13.8125H4.95833V12.0416H3.1875V13.8125ZM3.42408 12.779C3.35867 12.7124 3.3222 12.6226 3.32262 12.5293C3.32305 12.4359 3.36032 12.3465 3.42634 12.2805C3.49236 12.2144 3.58178 12.1772 3.67514 12.1767C3.76851 12.1763 3.85826 12.2128 3.92487 12.2782L4.07292 12.4263L4.22096 12.2782C4.28757 12.2128 4.37733 12.1763 4.47069 12.1767C4.56405 12.1772 4.65347 12.2144 4.71949 12.2805C4.78551 12.3465 4.82279 12.4359 4.82321 12.5293C4.82363 12.6226 4.78717 12.7124 4.72175 12.779L4.57371 12.927L4.72175 13.0751C4.75512 13.1079 4.78167 13.1469 4.79987 13.19C4.81806 13.2331 4.82753 13.2794 4.82775 13.3261C4.82796 13.3729 4.8189 13.4193 4.8011 13.4625C4.7833 13.5058 4.7571 13.5451 4.72403 13.5782C4.69095 13.6112 4.65165 13.6374 4.6084 13.6552C4.56515 13.673 4.51879 13.6821 4.47202 13.6819C4.42524 13.6817 4.37898 13.6722 4.33588 13.654C4.29279 13.6358 4.25373 13.6092 4.22096 13.5759L4.07292 13.4278L3.92487 13.5759C3.85826 13.6413 3.76851 13.6778 3.67514 13.6773C3.58178 13.6769 3.49236 13.6396 3.42634 13.5736C3.36032 13.5076 3.32305 13.4182 3.32262 13.3248C3.3222 13.2315 3.35867 13.1417 3.42408 13.0751L3.57213 12.927L3.42408 12.779Z" fill="#8E61C3"/>
<path d="M10.9792 1.41663H1.77083C1.58297 1.41663 1.40281 1.49126 1.26997 1.6241C1.13714 1.75694 1.06251 1.9371 1.0625 2.12496V14.875C1.06251 15.0628 1.13714 15.243 1.26997 15.3758C1.40281 15.5087 1.58297 15.5833 1.77083 15.5833H10.9792C11.167 15.5833 11.3472 15.5087 11.48 15.3758C11.6129 15.243 11.6875 15.0628 11.6875 14.875V2.12496C11.6875 1.9371 11.6129 1.75694 11.48 1.6241C11.3472 1.49126 11.167 1.41663 10.9792 1.41663ZM5.66667 14.1666C5.66667 14.2606 5.62935 14.3506 5.56293 14.4171C5.49651 14.4835 5.40643 14.5208 5.3125 14.5208H2.83333C2.7394 14.5208 2.64932 14.4835 2.5829 14.4171C2.51648 14.3506 2.47917 14.2606 2.47917 14.1666V11.6875C2.47917 11.5935 2.51648 11.5034 2.5829 11.437C2.64932 11.3706 2.7394 11.3333 2.83333 11.3333H5.3125C5.40643 11.3333 5.49651 11.3706 5.56293 11.437C5.62935 11.5034 5.66667 11.5935 5.66667 11.6875V14.1666ZM5.66667 10.2708C5.66667 10.3647 5.62935 10.4548 5.56293 10.5212C5.49651 10.5876 5.40643 10.625 5.3125 10.625H2.83333C2.7394 10.625 2.64932 10.5876 2.5829 10.5212C2.51648 10.4548 2.47917 10.3647 2.47917 10.2708V7.79163C2.47917 7.6977 2.51648 7.60761 2.5829 7.54119C2.64932 7.47477 2.7394 7.43746 2.83333 7.43746H5.3125C5.40643 7.43746 5.49651 7.47477 5.56293 7.54119C5.62935 7.60761 5.66667 7.6977 5.66667 7.79163V10.2708ZM6.375 6.37496C6.14327 6.37496 6.014 5.86865 5.81254 5.78511C5.60372 5.69849 5.15496 5.96178 4.9976 5.80441C4.84024 5.64704 5.10352 5.1983 5.01697 4.98947C4.93343 4.78802 4.42708 4.65873 4.42708 4.42704C4.42708 4.19536 4.93343 4.06607 5.01696 3.86458C5.1036 3.65574 4.84023 3.20702 4.99767 3.04964C5.15504 2.89227 5.60372 3.15558 5.81254 3.06899C6.014 2.98543 6.14327 2.47913 6.375 2.47913C6.60673 2.47913 6.736 2.98543 6.93746 3.06898C7.14628 3.1556 7.59504 2.89231 7.7524 3.04967C7.90976 3.20704 7.64648 3.65578 7.73303 3.86461C7.81657 4.06607 8.32292 4.19536 8.32292 4.42704C8.32292 4.65873 7.81657 4.78802 7.73304 4.98951C7.64649 5.19835 7.90977 5.64706 7.75241 5.80444C7.59496 5.96181 7.14628 5.6985 6.93747 5.78509C6.736 5.86865 6.60673 6.37496 6.375 6.37496ZM8.14583 14.5208H7.08333C6.9894 14.5208 6.89932 14.4835 6.8329 14.4171C6.76648 14.3506 6.72917 14.2606 6.72917 14.1666C6.72917 14.0727 6.76648 13.9826 6.8329 13.9162C6.89932 13.8498 6.9894 13.8125 7.08333 13.8125H8.14583C8.23976 13.8125 8.32985 13.8498 8.39627 13.9162C8.46269 13.9826 8.5 14.0727 8.5 14.1666C8.5 14.2606 8.46269 14.3506 8.39627 14.4171C8.32985 14.4835 8.23976 14.5208 8.14583 14.5208ZM9.91667 13.2812H7.08333C6.9894 13.2812 6.89932 13.2439 6.8329 13.1775C6.76648 13.1111 6.72917 13.021 6.72917 12.927C6.72917 12.8331 6.76648 12.743 6.8329 12.6766C6.89932 12.6102 6.9894 12.5729 7.08333 12.5729H9.91667C10.0106 12.5729 10.1007 12.6102 10.1671 12.6766C10.2335 12.743 10.2708 12.8331 10.2708 12.927C10.2708 13.021 10.2335 13.1111 10.1671 13.1775C10.1007 13.2439 10.0106 13.2812 9.91667 13.2812ZM9.91667 12.0416H7.08333C6.9894 12.0416 6.89932 12.0043 6.8329 11.9379C6.76648 11.8715 6.72917 11.7814 6.72917 11.6875C6.72917 11.5935 6.76648 11.5034 6.8329 11.437C6.89932 11.3706 6.9894 11.3333 7.08333 11.3333H9.91667C10.0106 11.3333 10.1007 11.3706 10.1671 11.437C10.2335 11.5034 10.2708 11.5935 10.2708 11.6875C10.2708 11.7814 10.2335 11.8715 10.1671 11.9379C10.1007 12.0043 10.0106 12.0416 9.91667 12.0416ZM6.72917 10.2708C6.72917 10.1769 6.76648 10.0868 6.8329 10.0204C6.89932 9.95394 6.9894 9.91663 7.08333 9.91663H8.14583C8.23976 9.91663 8.32985 9.95394 8.39627 10.0204C8.46269 10.0868 8.5 10.1769 8.5 10.2708C8.5 10.3647 8.46269 10.4548 8.39627 10.5212C8.32985 10.5876 8.23976 10.625 8.14583 10.625H7.08333C6.9894 10.625 6.89932 10.5876 6.8329 10.5212C6.76648 10.4548 6.72917 10.3647 6.72917 10.2708ZM9.91667 9.38538H7.08333C6.9894 9.38538 6.89932 9.34806 6.8329 9.28164C6.76648 9.21522 6.72917 9.12514 6.72917 9.03121C6.72917 8.93728 6.76648 8.8472 6.8329 8.78078C6.89932 8.71436 6.9894 8.67704 7.08333 8.67704H9.91667C10.0106 8.67704 10.1007 8.71436 10.1671 8.78078C10.2335 8.8472 10.2708 8.93728 10.2708 9.03121C10.2708 9.12514 10.2335 9.21522 10.1671 9.28164C10.1007 9.34806 10.0106 9.38538 9.91667 9.38538ZM9.91667 8.14579H7.08333C6.9894 8.14579 6.89932 8.10848 6.8329 8.04206C6.76648 7.97564 6.72917 7.88556 6.72917 7.79163C6.72917 7.6977 6.76648 7.60761 6.8329 7.54119C6.89932 7.47477 6.9894 7.43746 7.08333 7.43746H9.91667C10.0106 7.43746 10.1007 7.47477 10.1671 7.54119C10.2335 7.60761 10.2708 7.6977 10.2708 7.79163C10.2708 7.88556 10.2335 7.97564 10.1671 8.04206C10.1007 8.10848 10.0106 8.14579 9.91667 8.14579Z" fill="#8E61C3"/>
<path d="M15.4948 8.85417C15.5295 8.85422 15.5641 8.84909 15.5973 8.83894C15.6701 8.81693 15.7338 8.77209 15.7791 8.71105C15.8244 8.65001 15.8489 8.57602 15.8489 8.5V5.3125C15.8486 5.0308 15.7366 4.76073 15.5374 4.56154C15.3382 4.36235 15.0681 4.25031 14.7864 4.25H13.7239C13.63 4.25 13.5399 4.28731 13.4735 4.35373C13.4071 4.42015 13.3698 4.51024 13.3698 4.60417C13.3698 4.6981 13.4071 4.78818 13.4735 4.8546C13.5399 4.92102 13.63 4.95833 13.7239 4.95833H14.7864C14.8803 4.95846 14.9703 4.99581 15.0367 5.0622C15.1031 5.12859 15.1405 5.21861 15.1406 5.3125V7.33028L15.0811 7.24103C15.0555 7.2019 15.0224 7.16823 14.9837 7.14197C14.945 7.1157 14.9015 7.09735 14.8557 7.08799C14.8099 7.07862 14.7626 7.07842 14.7167 7.0874C14.6708 7.09638 14.6272 7.11436 14.5883 7.1403C14.5494 7.16624 14.516 7.19963 14.49 7.23854C14.4641 7.27746 14.4461 7.32112 14.4372 7.36702C14.4282 7.41291 14.4284 7.46013 14.4378 7.50594C14.4471 7.55176 14.4655 7.59527 14.4918 7.63395L15.2001 8.69645C15.2324 8.74495 15.2763 8.78473 15.3277 8.81224C15.3791 8.83975 15.4365 8.85415 15.4948 8.85417Z" fill="#8E61C3"/>
<path d="M14.2552 5.3125H12.1302V13.1042H14.2552V5.3125Z" fill="#8E61C3"/>
<path d="M14.2552 13.4584H12.1302V13.8137C12.1302 13.8801 12.1489 13.9452 12.1841 14.0014L12.8924 15.1348C12.9176 15.1936 12.9594 15.2437 13.0128 15.279C13.0662 15.3142 13.1288 15.333 13.1927 15.333C13.2567 15.333 13.3193 15.3142 13.3727 15.279C13.4261 15.2437 13.4679 15.1936 13.4931 15.1348L14.2014 14.0014C14.2366 13.9452 14.2552 13.8801 14.2552 13.8137V13.4584Z" fill="#8E61C3"/>
<path d="M12.8386 2.83337H13.5469C13.7348 2.83337 13.9149 2.908 14.0478 3.04084C14.1806 3.17368 14.2552 3.35385 14.2552 3.54171V4.60421C14.2552 4.69814 14.2179 4.78822 14.1515 4.85464C14.0851 4.92106 13.995 4.95837 13.9011 4.95837H12.1302V3.54171C12.1302 3.35385 12.2049 3.17368 12.3377 3.04084C12.4706 2.908 12.6507 2.83337 12.8386 2.83337Z" fill="#8E61C3"/>
</svg>
