<svg width="21" height="21" viewBox="0 0 21 21" fill="none" xmlns="http://www.w3.org/2000/svg">
<path d="M17.6401 7.05598H12.8521C13.1881 6.46798 13.3561 5.79598 13.4401 5.03998C13.7761 3.10798 12.2641 1.42798 10.3321 1.42798H9.82806C9.49206 1.42798 9.15606 1.76398 9.15606 2.09998V4.11598C9.15606 5.71198 8.31606 7.22398 6.88806 8.06398V18.564L7.56006 19.068C8.06406 19.404 8.65206 19.656 9.24006 19.656H16.6321C18.0601 19.656 19.2361 18.648 19.4041 17.304L20.4961 10.332C20.8321 8.65198 19.6561 7.05598 17.6401 7.05598Z" fill="#F3994F"/>
<path d="M1.68004 19.068H3.86404C4.53604 19.068 5.12404 18.48 5.12404 17.808V9.23998C5.12404 8.56798 4.53604 7.97998 3.86404 7.97998H1.68004C1.00804 7.97998 0.420044 8.56798 0.420044 9.23998V17.808C0.420044 18.48 1.00804 19.068 1.68004 19.068Z" fill="#F3994F"/>
</svg>
