<svg width="25" height="25" viewBox="0 0 25 25" fill="none" xmlns="http://www.w3.org/2000/svg">
<g clip-path="url(#clip0_258_91)">
<path d="M12.5 8.47681C10.2802 8.47681 8.47668 10.2804 8.47668 12.5001C8.47668 14.7199 10.2802 16.5234 12.5 16.5234C14.7197 16.5234 16.5233 14.7199 16.5233 12.5001C16.5233 10.2804 14.7197 8.47681 12.5 8.47681ZM12.1948 11.307C11.6953 11.307 11.2791 11.7232 11.2791 12.2226H9.94727C9.97502 10.974 10.9739 9.97514 12.1948 9.97514V11.307Z" fill="#9E9E9E"/>
<path d="M24.7087 11.6676C23.3491 9.97501 18.4933 4.45337 12.5 4.45337C6.50666 4.45337 1.65094 9.97501 0.291343 11.6676C-0.0971143 12.1393 -0.0971143 12.8329 0.291343 13.3324C1.65094 15.025 6.50666 20.5466 12.5 20.5466C18.4933 20.5466 23.3491 15.025 24.7087 13.3324C25.0971 12.8607 25.0971 12.167 24.7087 11.6676ZM12.5 18.3268C9.28135 18.3268 6.67314 15.7186 6.67314 12.5C6.67314 9.28134 9.28135 6.67313 12.5 6.67313C15.7186 6.67313 18.3269 9.28134 18.3269 12.5C18.3269 15.7186 15.7186 18.3268 12.5 18.3268Z" fill="#9E9E9E"/>
</g>
<defs>
<clipPath id="clip0_258_91">
<rect width="25" height="25" fill="white"/>
</clipPath>
</defs>
</svg>
