<svg width="24" height="24" viewBox="0 0 24 24" fill="none" xmlns="http://www.w3.org/2000/svg">
<path d="M12 1C18.0751 1 23 5.92487 23 12C23 18.0751 18.0751 23 12 23C5.92487 23 1 18.0751 1 12C1 5.92487 5.92487 1 12 1Z" fill="#7B59A3"/>
<path d="M14.2931 8.29309C14.6836 7.90258 15.3166 7.90257 15.7071 8.29309C16.0976 8.68362 16.0976 9.31665 15.7071 9.70715L13.4142 12.0001L15.7071 14.2931L15.7755 14.3693C16.0957 14.762 16.0732 15.3411 15.7071 15.7072C15.341 16.0732 14.762 16.0958 14.3692 15.7755L14.2931 15.7072L12.0001 13.4142L9.70712 15.7072C9.31662 16.0977 8.68359 16.0976 8.29306 15.7072C7.90253 15.3166 7.90253 14.6836 8.29306 14.2931L10.586 12.0001L8.29306 9.70715L8.2247 9.63098C7.90435 9.23821 7.92694 8.65921 8.29306 8.29309C8.65917 7.92697 9.23817 7.90438 9.63095 8.22473L9.70712 8.29309L12.0001 10.5861L14.2931 8.29309Z" fill="white"/>
</svg>
